<?xml version="1.0" encoding="UTF-8"?>
<!DOCTYPE svg PUBLIC "-//W3C//DTD SVG 1.1//EN" "http://www.w3.org/Graphics/SVG/1.1/DTD/svg11.dtd">
<svg xmlns="http://www.w3.org/2000/svg" version="1.1" width="360px" height="360px" style="shape-rendering:geometricPrecision; text-rendering:geometricPrecision; image-rendering:optimizeQuality; fill-rule:evenodd; clip-rule:evenodd" xmlns:xlink="http://www.w3.org/1999/xlink">
<g><path style="opacity:0.459" fill="#eacb93" d="M 158.5,40.5 C 154.361,41.5629 150.028,42.2296 145.5,42.5C 149.545,40.8227 153.878,40.1561 158.5,40.5 Z"/></g>
<g><path style="opacity:0.996" fill="#c2821c" d="M 298.5,112.5 C 301.222,120.496 304.055,128.496 307,136.5C 309.749,146.161 311.582,155.995 312.5,166C 312.765,175.889 312.265,186.389 311,197.5C 309.085,208.497 306.252,219.163 302.5,229.5C 299.326,234.516 296.659,239.849 294.5,245.5C 291.759,247.975 289.759,250.975 288.5,254.5C 288.262,256.404 287.262,257.738 285.5,258.5C 284.279,259.028 283.113,259.695 282,260.5C 279.955,264.019 277.789,267.352 275.5,270.5C 274.778,271.551 273.778,272.218 272.5,272.5C 268.134,276.535 263.801,280.535 259.5,284.5C 255.698,288.237 251.365,291.237 246.5,293.5C 243.515,294.326 240.849,295.659 238.5,297.5C 227.98,302.115 217.313,306.115 206.5,309.5C 199.62,309.958 192.953,310.958 186.5,312.5C 179.543,313.76 172.543,313.76 165.5,312.5C 143.919,309.862 123.585,303.196 104.5,292.5C 102.45,290.453 100.117,288.786 97.5,287.5C 96.5084,287.672 95.8417,287.338 95.5,286.5C 94.6473,284.107 92.9806,282.774 90.5,282.5C 88.5956,282.262 87.2623,281.262 86.5,279.5C 84.4784,275.478 81.4784,272.478 77.5,270.5C 76.9278,268.745 76.0945,267.078 75,265.5C 71.3274,261.328 67.4941,257.328 63.5,253.5C 62.0937,253.027 61.427,252.027 61.5,250.5C 55.0079,238.518 49.3413,226.184 44.5,213.5C 43.9434,208.948 42.9434,204.615 41.5,200.5C 41.7543,192.277 41.0876,184.277 39.5,176.5C 39.5,173.5 39.5,170.5 39.5,167.5C 40.1174,167.389 40.6174,167.056 41,166.5C 41.2265,153.807 43.3931,141.474 47.5,129.5C 49.0198,127.11 50.0198,124.443 50.5,121.5C 52.6246,118.912 53.9579,115.912 54.5,112.5C 58.0911,109.655 60.4244,105.988 61.5,101.5C 71.1157,87.8841 82.449,75.8841 95.5,65.5C 106.059,58.7198 117.059,52.7198 128.5,47.5C 134.439,46.4055 140.106,44.7389 145.5,42.5C 150.028,42.2296 154.361,41.5629 158.5,40.5C 219.32,35.5758 265.32,59.2425 296.5,111.5C 296.957,112.298 297.624,112.631 298.5,112.5 Z"/></g>
<g><path style="opacity:0.935" fill="#eed29e" d="M 298.5,112.5 C 297.624,112.631 296.957,112.298 296.5,111.5C 265.32,59.2425 219.32,35.5758 158.5,40.5C 213.89,34.1321 258.057,53.4654 291,98.5C 293.78,103.062 296.28,107.728 298.5,112.5 Z"/></g>
<g><path style="opacity:0.999" fill="#f79f0e" d="M 170.5,42.5 C 211.589,41.7134 247.089,57.3801 277,89.5C 314.44,138.402 318.773,189.402 290,242.5C 265.747,280.249 231.747,301.916 188,307.5C 179.309,307.411 170.976,307.411 163,307.5C 117.327,301.315 82.6608,278.315 59,238.5C 36.1226,194.308 37.4559,149.975 63,105.5C 88.9525,67.2856 124.786,46.2856 170.5,42.5 Z"/></g>
<g><path style="opacity:0.825" fill="#e8cd97" d="M 145.5,42.5 C 140.106,44.7389 134.439,46.4055 128.5,47.5C 133.779,44.8549 139.446,43.1882 145.5,42.5 Z"/></g>
<g><path style="opacity:1" fill="#ffcb72" d="M 238.5,64.5 C 240.854,66.1878 242.854,68.1878 244.5,70.5C 239.167,67.8333 233.833,65.1667 228.5,62.5C 214.999,55.7464 200.666,52.0797 185.5,51.5C 179.681,50.3475 173.681,50.1808 167.5,51C 162.253,51.1823 157.253,52.0157 152.5,53.5C 127.927,57.9508 106.927,68.9508 89.5,86.5C 84.1536,90.8545 79.4869,95.8545 75.5,101.5C 48.9073,140.161 44.074,181.495 61,225.5C 67.2745,238.21 74.7745,249.877 83.5,260.5C 81.2279,259.559 79.2279,258.226 77.5,256.5C 42.4796,208.647 39.3129,158.98 68,107.5C 91.5449,73.1052 123.545,53.4385 164,48.5C 171.48,48.6423 178.813,48.6423 186,48.5C 190.504,49.8546 194.837,50.8546 199,51.5C 199.333,51.1667 199.667,50.8333 200,50.5C 212.629,53.7694 225.463,58.4361 238.5,64.5 Z"/></g>
<g><path style="opacity:0.922" fill="#efd29c" d="M 128.5,47.5 C 117.059,52.7198 106.059,58.7198 95.5,65.5C 105.157,57.1688 116.157,51.1688 128.5,47.5 Z"/></g>
<g><path style="opacity:1" fill="#ffeed1" d="M 185.5,51.5 C 179.824,51.3339 174.157,51.5006 168.5,52C 187.937,51.8603 206.603,55.527 224.5,63C 226.066,63.765 227.399,63.5983 228.5,62.5C 233.833,65.1667 239.167,67.8333 244.5,70.5C 248.92,74.2226 253.586,77.7226 258.5,81C 263,85.5 267.5,90 272,94.5C 275.434,99.0511 278.601,103.718 281.5,108.5C 280.637,107.537 279.97,107.537 279.5,108.5C 280.833,110.833 282.167,113.167 283.5,115.5C 283.167,115.833 282.833,116.167 282.5,116.5C 274.467,111.967 268.3,105.634 264,97.5C 259.054,93.0441 254.387,88.3775 250,83.5C 249,83.5 248,83.5 247,83.5C 245.954,81.9095 244.787,80.4095 243.5,79C 239.383,76.8633 235.55,74.3633 232,71.5C 231.026,73.8776 230.359,73.5443 230,70.5C 229.667,70.8333 229.333,71.1667 229,71.5C 226.896,69.2616 224.562,68.2616 222,68.5C 220.287,66.8071 218.287,65.4738 216,64.5C 214.984,65.6341 214.317,65.3008 214,63.5C 212.657,64.2135 211.324,63.8802 210,62.5C 208,62.5 206,62.5 204,62.5C 203.667,61.8333 203.333,61.1667 203,60.5C 200.065,60.3925 197.065,60.3925 194,60.5C 191.227,58.9534 188.227,57.9534 185,57.5C 179,57.5 173,57.5 167,57.5C 165.759,59.6395 164.093,59.9729 162,58.5C 160.289,58.4393 158.956,59.1059 158,60.5C 155.907,59.7539 153.907,59.4205 152,59.5C 150.488,60.2567 149.154,61.2567 148,62.5C 146.602,61.9491 145.268,61.6158 144,61.5C 143.683,63.3008 143.016,63.6341 142,62.5C 138.448,63.7163 135.115,65.3829 132,67.5C 131.586,67.0426 131.086,66.7093 130.5,66.5C 128.575,66.837 127.075,68.1703 126,70.5C 124.192,70.1119 122.525,70.1119 121,70.5C 118.475,72.6918 115.642,74.5251 112.5,76C 111.789,77.2547 110.956,78.4214 110,79.5C 108.927,78.7203 107.76,78.887 106.5,80C 105.122,81.7134 103.455,83.0467 101.5,84C 102.654,84.9138 102.487,85.7471 101,86.5C 100,86.5 99,86.5 98,86.5C 93.5579,92.6962 88.7245,98.0296 83.5,102.5C 82.0787,105.009 80.4121,107.343 78.5,109.5C 78.7093,110.086 79.0426,110.586 79.5,111C 73.4353,116.643 69.1019,123.81 66.5,132.5C 67.6682,133.906 67.3348,135.072 65.5,136C 65.5,137.333 65.5,138.667 65.5,140C 64.6721,140.915 63.6721,141.581 62.5,142C 63.1667,142.333 63.8333,142.667 64.5,143C 63.3277,144.993 62.3277,146.993 61.5,149C 61.8333,150 62.1667,151 62.5,152C 59.9985,155.169 59.3318,158.669 60.5,162.5C 58.9579,166.14 58.2912,169.973 58.5,174C 58.9168,177.54 58.9168,180.873 58.5,184C 61.1667,184.667 61.1667,185.333 58.5,186C 58.8333,186.333 59.1667,186.667 59.5,187C 57.9556,189.999 56.7889,193.166 56,196.5C 49.5911,161.901 56.7578,130.568 77.5,102.5C 77.0431,101.702 76.3764,101.369 75.5,101.5C 79.4869,95.8545 84.1536,90.8545 89.5,86.5C 89.4346,86.9382 89.6012,87.2716 90,87.5C 109.102,70.3654 131.269,59.1987 156.5,54C 155.207,53.51 153.873,53.3433 152.5,53.5C 157.253,52.0157 162.253,51.1823 167.5,51C 173.681,50.1808 179.681,50.3475 185.5,51.5 Z"/></g>
<g><path style="opacity:1" fill="#fff4e0" d="M 281.5,108.5 C 289.015,119.03 294.015,130.696 296.5,143.5C 296.095,144.55 295.429,144.55 294.5,143.5C 294.167,144.167 293.833,144.833 293.5,145.5C 292.301,148.755 291.301,152.588 290.5,157C 292.164,159.264 292.497,161.597 291.5,164C 293.159,169.432 293.825,174.766 293.5,180C 292.833,182.667 292.167,185.333 291.5,188C 292.634,189.016 292.301,189.683 290.5,190C 290.501,191.399 290.835,192.899 291.5,194.5C 290.975,195.192 290.308,195.692 289.5,196C 290.925,197.714 290.592,199.047 288.5,200C 291.167,200.667 291.167,201.333 288.5,202C 289.051,203.398 289.384,204.732 289.5,206C 288.31,208.116 286.977,210.116 285.5,212C 286.167,212.333 286.833,212.667 287.5,213C 284.876,213.576 284.209,214.91 285.5,217C 284.809,218.067 284.309,219.234 284,220.5C 282.328,221.502 281.162,222.668 280.5,224C 282.878,224.974 282.544,225.641 279.5,226C 281.878,226.974 281.544,227.641 278.5,228C 279.791,230.09 279.124,231.424 276.5,232C 278.878,232.974 278.544,233.641 275.5,234C 276.634,235.016 276.301,235.683 274.5,236C 274.5,237 274.5,238 274.5,239C 273.5,239.333 272.5,239.667 271.5,240C 271.833,240.333 272.167,240.667 272.5,241C 270.106,242.448 268.606,244.614 268,247.5C 266.334,246.66 266.167,247.16 267.5,249C 266.747,250.487 265.914,250.654 265,249.5C 264.092,252.743 262.092,255.077 259,256.5C 257.398,258.307 256.064,260.307 255,262.5C 254.026,260.122 253.359,260.456 253,263.5C 252.667,263.167 252.333,262.833 252,262.5C 251.667,263.5 251.333,264.5 251,265.5C 250.667,265.167 250.333,264.833 250,264.5C 248.333,266.5 246.667,268.5 245,270.5C 244.026,268.122 243.359,268.456 243,271.5C 242.667,271.167 242.333,270.833 242,270.5C 240.333,272.167 238.667,273.833 237,275.5C 236.667,275.167 236.333,274.833 236,274.5C 234.667,275.833 233.333,277.167 232,278.5C 231.026,276.122 230.359,276.456 230,279.5C 228.434,278.939 227.101,279.606 226,281.5C 225.667,281.167 225.333,280.833 225,280.5C 222.056,282.591 219.39,284.258 217,285.5C 216.667,284.833 216.333,284.167 216,283.5C 214.893,286.492 213.226,287.159 211,285.5C 210.683,287.301 210.016,287.634 209,286.5C 206.693,288.608 204.36,289.941 202,290.5C 201,289.833 200,289.167 199,288.5C 198,289.5 197,290.5 196,291.5C 195.374,289.009 194.541,289.009 193.5,291.5C 191.577,291.37 189.744,291.036 188,290.5C 185.684,292.459 183.684,292.459 182,290.5C 181.333,294.5 180.667,294.5 180,290.5C 179.333,294.5 178.667,294.5 178,290.5C 177.581,291.672 176.915,292.672 176,293.5C 175.333,292.167 174.667,292.167 174,293.5C 172.667,292.833 171.667,291.833 171,290.5C 170.333,293.167 169.667,293.167 169,290.5C 168.125,292.513 166.791,292.513 165,290.5C 162.368,290.293 160.035,290.626 158,291.5C 157.333,288.833 156.667,288.833 156,291.5C 155.333,288.833 154.667,288.833 154,291.5C 153.667,290.833 153.333,290.167 153,289.5C 151.333,289.5 149.667,289.5 148,289.5C 147.667,288.833 147.333,288.167 147,287.5C 145.883,287.665 144.716,287.998 143.5,288.5C 141.428,287.716 139.261,286.383 137,284.5C 136.667,285.167 136.333,285.833 136,286.5C 133.99,285.553 131.99,283.886 130,281.5C 129.667,282.167 129.333,282.833 129,283.5C 127.738,281.697 126.071,280.364 124,279.5C 123.667,279.833 123.333,280.167 123,280.5C 120.213,278.953 117.88,276.953 116,274.5C 115.026,276.878 114.359,276.544 114,273.5C 113,273.5 112,273.5 111,273.5C 109.956,272.377 109.29,271.044 109,269.5C 108.667,270.167 108.333,270.833 108,271.5C 96.5397,262.381 86.3731,251.547 77.5,239C 77.8333,238.667 78.1667,238.333 78.5,238C 77.3774,236.956 76.0441,236.29 74.5,236C 75.1667,235.667 75.8333,235.333 76.5,235C 72.2342,232.679 68.4009,229.179 65,224.5C 65.3052,227.491 65.9719,230.491 67,233.5C 80.2538,256.421 98.4204,274.255 121.5,287C 120.906,287.464 120.239,287.631 119.5,287.5C 112.89,284.192 106.556,280.358 100.5,276C 94.6635,270.996 88.9969,265.829 83.5,260.5C 74.7745,249.877 67.2745,238.21 61,225.5C 44.074,181.495 48.9073,140.161 75.5,101.5C 76.3764,101.369 77.0431,101.702 77.5,102.5C 56.7578,130.568 49.5911,161.901 56,196.5C 56.7889,193.166 57.9556,189.999 59.5,187C 59.1667,186.667 58.8333,186.333 58.5,186C 61.1667,185.333 61.1667,184.667 58.5,184C 58.9168,180.873 58.9168,177.54 58.5,174C 58.2912,169.973 58.9579,166.14 60.5,162.5C 59.3318,158.669 59.9985,155.169 62.5,152C 62.1667,151 61.8333,150 61.5,149C 62.3277,146.993 63.3277,144.993 64.5,143C 63.8333,142.667 63.1667,142.333 62.5,142C 63.6721,141.581 64.6721,140.915 65.5,140C 65.5,138.667 65.5,137.333 65.5,136C 67.3348,135.072 67.6682,133.906 66.5,132.5C 69.1019,123.81 73.4353,116.643 79.5,111C 79.0426,110.586 78.7093,110.086 78.5,109.5C 80.4121,107.343 82.0787,105.009 83.5,102.5C 88.7245,98.0296 93.5579,92.6962 98,86.5C 99,86.5 100,86.5 101,86.5C 102.487,85.7471 102.654,84.9138 101.5,84C 103.455,83.0467 105.122,81.7134 106.5,80C 107.76,78.887 108.927,78.7203 110,79.5C 110.956,78.4214 111.789,77.2547 112.5,76C 115.642,74.5251 118.475,72.6918 121,70.5C 122.525,70.1119 124.192,70.1119 126,70.5C 127.075,68.1703 128.575,66.837 130.5,66.5C 131.086,66.7093 131.586,67.0426 132,67.5C 135.115,65.3829 138.448,63.7163 142,62.5C 143.016,63.6341 143.683,63.3008 144,61.5C 145.268,61.6158 146.602,61.9491 148,62.5C 149.154,61.2567 150.488,60.2567 152,59.5C 153.907,59.4205 155.907,59.7539 158,60.5C 158.956,59.1059 160.289,58.4393 162,58.5C 164.093,59.9729 165.759,59.6395 167,57.5C 173,57.5 179,57.5 185,57.5C 188.227,57.9534 191.227,58.9534 194,60.5C 197.065,60.3925 200.065,60.3925 203,60.5C 203.333,61.1667 203.667,61.8333 204,62.5C 206,62.5 208,62.5 210,62.5C 211.324,63.8802 212.657,64.2135 214,63.5C 214.317,65.3008 214.984,65.6341 216,64.5C 218.287,65.4738 220.287,66.8071 222,68.5C 224.562,68.2616 226.896,69.2616 229,71.5C 229.333,71.1667 229.667,70.8333 230,70.5C 230.359,73.5443 231.026,73.8776 232,71.5C 235.55,74.3633 239.383,76.8633 243.5,79C 244.787,80.4095 245.954,81.9095 247,83.5C 248,83.5 249,83.5 250,83.5C 254.387,88.3775 259.054,93.0441 264,97.5C 268.3,105.634 274.467,111.967 282.5,116.5C 282.833,116.167 283.167,115.833 283.5,115.5C 282.167,113.167 280.833,110.833 279.5,108.5C 279.97,107.537 280.637,107.537 281.5,108.5 Z"/></g>
<g><path style="opacity:1" fill="#fff7ea" d="M 152.5,53.5 C 153.873,53.3433 155.207,53.51 156.5,54C 131.269,59.1987 109.102,70.3654 90,87.5C 89.6012,87.2716 89.4346,86.9382 89.5,86.5C 106.927,68.9508 127.927,57.9508 152.5,53.5 Z"/></g>
<g><path style="opacity:1" fill="#fff8eb" d="M 162.5,63.5 C 163.222,63.9175 163.722,64.5842 164,65.5C 165.698,64.267 167.698,63.6004 170,63.5C 172.302,63.6004 174.302,64.267 176,65.5C 176.308,64.6919 176.808,64.0253 177.5,63.5C 179.326,64.0437 181.326,64.0437 183.5,63.5C 185.32,63.6493 186.82,64.3159 188,65.5C 188.667,62.8333 189.333,62.8333 190,65.5C 191,65.1667 192,64.8333 193,64.5C 193.64,66.3984 194.973,66.7317 197,65.5C 198.711,65.4393 200.044,66.1059 201,67.5C 201.333,66.8333 201.667,66.1667 202,65.5C 202.508,67.9042 203.675,68.5709 205.5,67.5C 206.705,69.1376 208.038,69.4709 209.5,68.5C 210.197,70.3845 211.197,70.7178 212.5,69.5C 214.753,70.2531 216.587,71.5864 218,73.5C 220.089,73.2549 222.089,73.2549 224,73.5C 224.615,75.1161 225.615,76.4495 227,77.5C 228.503,77.1654 229.836,77.1654 231,77.5C 241.566,84.398 251.233,92.398 260,101.5C 260.212,104.44 261.712,106.274 264.5,107C 263.833,107.333 263.167,107.667 262.5,108C 264.359,108.684 266.026,109.684 267.5,111C 266.833,111.333 266.167,111.667 265.5,112C 266.793,112.49 268.127,112.657 269.5,112.5C 269.351,113.552 269.517,114.552 270,115.5C 270.333,115.167 270.667,114.833 271,114.5C 276.516,118.687 282.016,122.854 287.5,127C 287.167,127.333 286.833,127.667 286.5,128C 287.5,129 288.5,130 289.5,131C 288.833,131.333 288.167,131.667 287.5,132C 290.249,133.346 290.583,134.68 288.5,136C 291.167,136.667 291.167,137.333 288.5,138C 291.167,138.667 291.167,139.333 288.5,140C 291.167,140.667 291.167,141.333 288.5,142C 288.833,143 289.167,144 289.5,145C 288.35,147.212 287.35,149.379 286.5,151.5C 287.108,153.684 286.441,155.684 284.5,157.5C 285.025,158.192 285.692,158.692 286.5,159C 286.167,160 285.833,161 285.5,162C 286.293,163.085 286.96,164.252 287.5,165.5C 286.36,171.263 286.36,177.096 287.5,183C 286.12,184.324 285.786,185.657 286.5,187C 285.833,187.333 285.167,187.667 284.5,188C 286.996,190.241 286.663,192.241 283.5,194C 286.158,196.386 285.825,198.386 282.5,200C 284.583,201.32 284.249,202.654 281.5,204C 283.891,204.691 283.891,205.691 281.5,207C 282.108,209.184 281.441,211.184 279.5,213C 279.833,213.333 280.167,213.667 280.5,214C 278.709,216.414 277.043,218.914 275.5,221.5C 276.025,222.192 276.692,222.692 277.5,223C 275.106,224.448 273.606,226.614 273,229.5C 271.334,228.66 271.167,229.16 272.5,231C 270.647,233.998 268.647,236.165 266.5,237.5C 266.709,238.086 267.043,238.586 267.5,239C 265.5,241.596 263.167,243.929 260.5,246C 261.654,246.914 261.487,247.747 260,248.5C 259.667,248.167 259.333,247.833 259,247.5C 256.718,251.718 253.718,255.384 250,258.5C 249.667,258.167 249.333,257.833 249,257.5C 247.379,259.493 245.713,261.493 244,263.5C 243.667,263.167 243.333,262.833 243,262.5C 241.404,266.165 238.904,267.998 235.5,268C 236.654,268.914 236.487,269.747 235,270.5C 234.667,270.167 234.333,269.833 234,269.5C 230.082,272.896 225.916,275.063 221.5,276C 220.638,278.734 219.805,278.901 219,276.5C 218,277.5 217,278.5 216,279.5C 215.667,278.833 215.333,278.167 215,277.5C 214.309,280.266 212.809,280.933 210.5,279.5C 209.808,280.025 209.308,280.692 209,281.5C 207.984,280.366 207.317,280.699 207,282.5C 205.32,281.397 203.82,281.73 202.5,283.5C 201.117,280.924 200.283,281.258 200,284.5C 199.333,281.833 198.667,281.833 198,284.5C 197.667,283.833 197.333,283.167 197,282.5C 195.513,285.951 193.513,286.617 191,284.5C 190.026,286.878 189.359,286.544 189,283.5C 188.641,286.544 187.974,286.878 187,284.5C 186.667,285.167 186.333,285.833 186,286.5C 180.86,286.112 175.86,286.112 171,286.5C 170.374,284.009 169.541,284.009 168.5,286.5C 166.037,286.413 163.537,286.413 161,286.5C 159.209,284.487 157.875,284.487 157,286.5C 156.581,285.328 155.915,284.328 155,283.5C 152.908,284.64 150.741,284.64 148.5,283.5C 147.23,282.438 146.063,281.438 145,280.5C 144.667,281.167 144.333,281.833 144,282.5C 143,281.5 142,280.5 141,279.5C 140.333,282.167 139.667,282.167 139,279.5C 137.667,279.5 136.333,279.5 135,279.5C 133.667,278.833 132.667,277.833 132,276.5C 131.667,277.167 131.333,277.833 131,278.5C 128.763,276.719 126.763,274.719 125,272.5C 124.667,273.167 124.333,273.833 124,274.5C 121.672,273.514 119.672,271.514 118,268.5C 117.667,269.167 117.333,269.833 117,270.5C 115.287,269.122 113.953,267.455 113,265.5C 112.667,265.833 112.333,266.167 112,266.5C 111.097,265.299 109.931,264.465 108.5,264C 109.34,262.334 108.84,262.167 107,263.5C 100.855,258.376 94.6888,252.542 88.5,246C 89.1667,245.667 89.8333,245.333 90.5,245C 88.3215,244.558 87.6548,243.558 88.5,242C 86.9512,240.786 85.7845,239.286 85,237.5C 84.0164,239.795 83.1831,239.461 82.5,236.5C 83.6087,235.035 83.1087,234.035 81,233.5C 80.4389,231.275 79.4389,229.275 78,227.5C 77.6667,228.167 77.3333,228.833 77,229.5C 75.3333,227.167 73.6667,224.833 72,222.5C 71.0255,224.878 70.3589,224.544 70,221.5C 69.6667,222.167 69.3333,222.833 69,223.5C 68.5348,222.069 67.7014,220.903 66.5,220C 67.3402,218.334 66.8402,218.167 65,219.5C 63.513,218.747 63.3463,217.914 64.5,217C 63.8384,215.668 62.6718,214.502 61,213.5C 60.7489,211.567 60.2489,209.734 59.5,208C 59.5,206.667 59.5,205.333 59.5,204C 60.1667,203.333 60.8333,202.667 61.5,202C 61.0563,200.467 60.723,198.967 60.5,197.5C 61.5294,197.704 62.5294,197.204 63.5,196C 62.5419,194.853 62.8753,193.853 64.5,193C 61.8463,190.928 62.1796,189.261 65.5,188C 65.3349,186.883 65.0016,185.716 64.5,184.5C 66.9092,181.509 66.5759,179.342 63.5,178C 66.1667,177.333 66.1667,176.667 63.5,176C 64.3081,175.692 64.9747,175.192 65.5,174.5C 64.1667,173.5 64.1667,172.5 65.5,171.5C 62.9244,170.117 63.2577,169.283 66.5,169C 65.8333,168.667 65.1667,168.333 64.5,168C 65.767,166.204 65.767,164.371 64.5,162.5C 65.0253,161.808 65.6919,161.308 66.5,161C 65.7539,158.907 65.4205,156.907 65.5,155C 67.8912,153.691 67.8912,152.691 65.5,152C 66.6721,151.581 67.6721,150.915 68.5,150C 67.9491,148.602 67.6158,147.268 67.5,146C 68.91,145.632 69.91,144.799 70.5,143.5C 70.7184,141.724 70.7184,139.891 70.5,138C 70.9225,135.366 72.2559,133.366 74.5,132C 74.0426,131.586 73.7093,131.086 73.5,130.5C 74.7639,127.875 75.9305,125.208 77,122.5C 77.805,124.901 78.6383,124.734 79.5,122C 78.4829,120.951 78.3162,119.784 79,118.5C 79.805,120.901 80.6383,120.734 81.5,118C 81.0426,117.586 80.7093,117.086 80.5,116.5C 82.4372,114.96 83.6039,112.96 84,110.5C 85.3333,109.833 86.6667,109.167 88,108.5C 88.6172,107.551 88.4506,106.718 87.5,106C 88.6667,105.5 89.5,104.667 90,103.5C 91.6665,104.34 91.8331,103.84 90.5,102C 93.5417,101.445 95.375,99.6121 96,96.5C 97.0674,95.8095 98.2341,95.3095 99.5,95C 99.1667,94.6667 98.8333,94.3333 98.5,94C 100.974,93.8871 102.974,92.8871 104.5,91C 104.167,90.6667 103.833,90.3333 103.5,90C 105,89.1667 106.167,88 107,86.5C 108,86.5 109,86.5 110,86.5C 111.487,85.7471 111.654,84.9138 110.5,84C 112.848,83.8898 114.348,82.7231 115,80.5C 116.016,81.6341 116.683,81.3008 117,79.5C 117.333,80.1667 117.667,80.8333 118,81.5C 118.631,78.359 120.298,77.359 123,78.5C 124.385,77.4495 125.385,76.1161 126,74.5C 127.087,76.9316 127.587,76.5983 127.5,73.5C 131.768,72.6935 135.601,71.0269 139,68.5C 139.333,69.1667 139.667,69.8333 140,70.5C 141.346,67.7506 142.68,67.4172 144,69.5C 144.605,67.5188 145.605,67.1854 147,68.5C 148.963,65.0536 150.296,65.0536 151,68.5C 151.483,67.552 151.649,66.552 151.5,65.5C 153.467,65.2606 155.301,65.5939 157,66.5C 158.555,64.8542 160.221,64.5209 162,65.5C 162.464,64.9056 162.631,64.2389 162.5,63.5 Z"/></g>
<g><path style="opacity:1" fill="#febc45" d="M 162.5,74.5 C 156.668,75.3872 151.001,77.2205 145.5,80C 146.167,80.1667 146.833,80.3333 147.5,80.5C 168.416,74.9615 189.249,75.2948 210,81.5C 211.07,81.472 211.903,81.1386 212.5,80.5C 214.403,80.7959 216.07,81.4625 217.5,82.5C 215.901,82.2322 214.568,82.5655 213.5,83.5C 211.932,82.5269 210.265,82.3603 208.5,83C 195.837,88.3337 183.503,94.167 171.5,100.5C 166.802,102.849 162.136,105.182 157.5,107.5C 132.601,118.282 107.934,129.616 83.5,141.5C 86.4778,131.211 91.3111,121.878 98,113.5C 108.434,101.208 120.934,91.7085 135.5,85C 136.696,84.3457 136.696,83.8457 135.5,83.5C 134.264,84.2458 132.93,84.5792 131.5,84.5C 138.9,81.0779 146.567,77.9112 154.5,75C 157.146,74.5026 159.813,74.3359 162.5,74.5 Z"/></g>
<g><path style="opacity:0.533" fill="#f4d597" d="M 95.5,65.5 C 82.449,75.8841 71.1157,87.8841 61.5,101.5C 69.7359,86.5968 81.0692,74.5968 95.5,65.5 Z"/></g>
<g><path style="opacity:1" fill="#dc9320" d="M 212.5,80.5 C 211.903,81.1386 211.07,81.472 210,81.5C 189.249,75.2948 168.416,74.9615 147.5,80.5C 146.833,80.3333 146.167,80.1667 145.5,80C 151.001,77.2205 156.668,75.3872 162.5,74.5C 179.708,72.1467 196.375,74.1467 212.5,80.5 Z"/></g>
<g><path style="opacity:1" fill="#fee0ad" d="M 213.5,83.5 C 226.545,88.3454 237.878,95.6788 247.5,105.5C 242.799,107.85 238.132,110.184 233.5,112.5C 223.457,108.87 214.123,110.037 205.5,116C 199.703,121.812 194.036,127.646 188.5,133.5C 176.284,138.273 164.284,143.607 152.5,149.5C 148.5,145.833 144.5,142.167 140.5,138.5C 139.859,137.518 139.193,136.518 138.5,135.5C 149.125,124.374 159.958,113.374 171,102.5C 171.464,101.906 171.631,101.239 171.5,100.5C 183.503,94.167 195.837,88.3337 208.5,83C 210.265,82.3603 211.932,82.5269 213.5,83.5 Z"/></g>
<g><path style="opacity:1" fill="#ffb73a" d="M 247.5,68.5 C 244.5,67.1667 241.5,65.8333 238.5,64.5C 225.463,58.4361 212.629,53.7694 200,50.5C 199.667,50.8333 199.333,51.1667 199,51.5C 194.837,50.8546 190.504,49.8546 186,48.5C 178.813,48.6423 171.48,48.6423 164,48.5C 123.545,53.4385 91.5449,73.1052 68,107.5C 39.3129,158.98 42.4796,208.647 77.5,256.5C 77.5,257.167 77.5,257.833 77.5,258.5C 68.3907,248.997 61.224,237.997 56,225.5C 36.602,174.056 45.2687,127.39 82,85.5C 110.43,58.6629 142.764,45.3296 179,45.5C 197.082,46.7052 214.916,51.2052 232.5,59C 237.903,61.6916 242.903,64.8583 247.5,68.5 Z"/></g>
<g><path style="opacity:1" fill="#fff8ed" d="M 185.5,51.5 C 200.666,52.0797 214.999,55.7464 228.5,62.5C 227.399,63.5983 226.066,63.765 224.5,63C 206.603,55.527 187.937,51.8603 168.5,52C 174.157,51.5006 179.824,51.3339 185.5,51.5 Z"/></g>
<g><path style="opacity:1" fill="#ffc35a" d="M 238.5,64.5 C 241.5,65.8333 244.5,67.1667 247.5,68.5C 262.882,79.8827 275.882,93.5493 286.5,109.5C 303.316,140.37 307.816,172.703 300,206.5C 299.764,208.119 298.931,209.119 297.5,209.5C 301.391,192.322 302.391,174.989 300.5,157.5C 299.99,153.116 299.157,148.782 298,144.5C 297.617,143.944 297.117,143.611 296.5,143.5C 294.015,130.696 289.015,119.03 281.5,108.5C 278.601,103.718 275.434,99.0511 272,94.5C 267.5,90 263,85.5 258.5,81C 253.586,77.7226 248.92,74.2226 244.5,70.5C 242.854,68.1878 240.854,66.1878 238.5,64.5 Z"/></g>
<g><path style="opacity:1" fill="#0d0d0d" d="M 171.5,100.5 C 171.631,101.239 171.464,101.906 171,102.5C 159.958,113.374 149.125,124.374 138.5,135.5C 139.193,136.518 139.859,137.518 140.5,138.5C 143.77,143.44 147.77,147.773 152.5,151.5C 159.446,157.779 166.113,164.446 172.5,171.5C 172.369,172.239 172.536,172.906 173,173.5C 173.667,172.167 174.333,172.167 175,173.5C 181,167.5 187,161.5 193,155.5C 193.765,153.934 193.598,152.601 192.5,151.5C 189.167,148.833 186.167,145.833 183.5,142.5C 188.434,136.392 193.601,130.392 199,124.5C 208.76,111.869 220.094,108.535 233,114.5C 234.147,113.542 235.147,113.875 236,115.5C 236.383,114.944 236.883,114.611 237.5,114.5C 238.79,115.058 239.623,116.058 240,117.5C 244.757,129.465 242.923,140.131 234.5,149.5C 226.554,156.109 218.887,163.109 211.5,170.5C 208.897,168.379 206.564,166.046 204.5,163.5C 203.038,162.542 201.705,161.376 200.5,160C 195.177,163.141 190.51,167.308 186.5,172.5C 184.37,174.127 182.37,175.96 180.5,178C 188.338,187.005 196.672,195.505 205.5,203.5C 213.167,211.833 221.167,219.833 229.5,227.5C 230.625,229.129 231.959,230.629 233.5,232C 231.333,234.167 229.167,236.333 227,238.5C 224.63,235.961 222.13,233.628 219.5,231.5C 211.194,223.86 203.194,215.86 195.5,207.5C 188.505,199.671 181.005,192.338 173,185.5C 164,194.5 155,203.5 146,212.5C 145.902,218.64 145.068,224.64 143.5,230.5C 141.909,234.964 139.576,239.13 136.5,243C 133.536,242.228 131.202,240.395 129.5,237.5C 123.5,230.833 117.167,224.5 110.5,218.5C 118.408,210.695 127.575,207.695 138,209.5C 148.051,200.627 157.718,191.293 167,181.5C 167.773,179.648 167.273,178.314 165.5,177.5C 157.5,170.167 149.833,162.5 142.5,154.5C 139.146,150.147 135.146,146.48 130.5,143.5C 120.146,153.188 110.146,163.188 100.5,173.5C 98.8712,174.625 97.3712,175.959 96,177.5C 95.6012,177.272 95.4346,176.938 95.5,176.5C 97.1284,171.91 99.2951,167.577 102,163.5C 109.659,154.671 117.159,145.671 124.5,136.5C 125.248,134.584 125.248,132.584 124.5,130.5C 130.83,130.853 135.497,128.186 138.5,122.5C 144.682,117.251 151.015,112.251 157.5,107.5C 162.136,105.182 166.802,102.849 171.5,100.5 Z"/></g>
<g><path style="opacity:1" fill="#febc45" d="M 247.5,105.5 C 255.891,113.94 262.558,123.607 267.5,134.5C 256.654,139.755 245.654,144.755 234.5,149.5C 242.923,140.131 244.757,129.465 240,117.5C 239.623,116.058 238.79,115.058 237.5,114.5C 236.486,113.326 235.153,112.66 233.5,112.5C 238.132,110.184 242.799,107.85 247.5,105.5 Z"/></g>
<g><path style="opacity:1" fill="#ec9f26" d="M 83.5,141.5 C 82.2101,142.058 81.3768,143.058 81,144.5C 77.201,157.56 75.701,170.894 76.5,184.5C 77.6751,196.546 81.0085,207.88 86.5,218.5C 91.284,229.72 98.284,239.387 107.5,247.5C 117.049,258.02 128.716,265.353 142.5,269.5C 173.096,279.886 202.43,276.886 230.5,260.5C 231.167,260.5 231.5,260.833 231.5,261.5C 185.871,287.897 143.371,283.563 104,248.5C 77.157,218.935 68.4904,184.602 78,145.5C 81.2432,139.445 83.9098,133.112 86,126.5C 96.9193,107.742 112.086,93.7416 131.5,84.5C 132.93,84.5792 134.264,84.2458 135.5,83.5C 136.696,83.8457 136.696,84.3457 135.5,85C 120.934,91.7085 108.434,101.208 98,113.5C 91.3111,121.878 86.4778,131.211 83.5,141.5 Z"/></g>
<g><path style="opacity:0.235" fill="#f2d8a1" d="M 61.5,101.5 C 60.4244,105.988 58.0911,109.655 54.5,112.5C 55.6571,108.024 57.9905,104.358 61.5,101.5 Z"/></g>
<g><path style="opacity:1" fill="#ffb432" d="M 286.5,109.5 C 297.603,127.143 303.936,146.476 305.5,167.5C 305.865,220.94 283.199,261.44 237.5,289C 233.692,290.992 229.692,292.492 225.5,293.5C 231.771,290.028 238.105,286.528 244.5,283C 246.063,282.241 247.063,281.074 247.5,279.5C 247.5,278.833 247.833,278.5 248.5,278.5C 260.988,271.186 271.488,261.52 280,249.5C 280.608,247.846 281.108,246.179 281.5,244.5C 284.006,243.185 285.839,241.185 287,238.5C 290.648,232.549 293.148,226.216 294.5,219.5C 294.833,218.167 295.167,216.833 295.5,215.5C 295.595,213.214 296.262,211.214 297.5,209.5C 298.931,209.119 299.764,208.119 300,206.5C 307.816,172.703 303.316,140.37 286.5,109.5 Z"/></g>
<g><path style="opacity:1" fill="#524e46" d="M 233.5,112.5 C 235.153,112.66 236.486,113.326 237.5,114.5C 236.883,114.611 236.383,114.944 236,115.5C 235.147,113.875 234.147,113.542 233,114.5C 220.094,108.535 208.76,111.869 199,124.5C 193.601,130.392 188.434,136.392 183.5,142.5C 182.711,142.217 182.044,141.717 181.5,141C 184.039,138.63 186.372,136.13 188.5,133.5C 194.036,127.646 199.703,121.812 205.5,116C 214.123,110.037 223.457,108.87 233.5,112.5 Z"/></g>
<g><path style="opacity:1" fill="#fcdfac" d="M 157.5,107.5 C 151.015,112.251 144.682,117.251 138.5,122.5C 135.497,128.186 130.83,130.853 124.5,130.5C 125.248,132.584 125.248,134.584 124.5,136.5C 117.159,145.671 109.659,154.671 102,163.5C 99.2951,167.577 97.1284,171.91 95.5,176.5C 89.3524,179.401 83.0191,182.068 76.5,184.5C 75.701,170.894 77.201,157.56 81,144.5C 81.3768,143.058 82.2101,142.058 83.5,141.5C 107.934,129.616 132.601,118.282 157.5,107.5 Z"/></g>
<g><path style="opacity:0.267" fill="#f5dda3" d="M 54.5,112.5 C 53.9579,115.912 52.6246,118.912 50.5,121.5C 51.0421,118.088 52.3754,115.088 54.5,112.5 Z"/></g>
<g><path style="opacity:0.851" fill="#eccf95" d="M 50.5,121.5 C 50.0198,124.443 49.0198,127.11 47.5,129.5C 47.4152,126.351 48.4152,123.684 50.5,121.5 Z"/></g>
<g><path style="opacity:1" fill="#fdbb46" d="M 188.5,133.5 C 186.372,136.13 184.039,138.63 181.5,141C 182.044,141.717 182.711,142.217 183.5,142.5C 186.167,145.833 189.167,148.833 192.5,151.5C 192.291,152.922 191.791,154.255 191,155.5C 185.833,160.667 180.667,165.833 175.5,171C 174.552,171.483 173.552,171.649 172.5,171.5C 166.113,164.446 159.446,157.779 152.5,151.5C 152.5,150.833 152.5,150.167 152.5,149.5C 164.284,143.607 176.284,138.273 188.5,133.5 Z"/></g>
<g><path style="opacity:1" fill="#fee0ac" d="M 267.5,134.5 C 272.963,145.01 275.963,156.343 276.5,168.5C 253.3,179.511 229.966,190.345 206.5,201C 205.748,201.671 205.414,202.504 205.5,203.5C 196.672,195.505 188.338,187.005 180.5,178C 182.37,175.96 184.37,174.127 186.5,172.5C 192.787,170.023 198.787,167.023 204.5,163.5C 206.564,166.046 208.897,168.379 211.5,170.5C 218.887,163.109 226.554,156.109 234.5,149.5C 245.654,144.755 256.654,139.755 267.5,134.5 Z"/></g>
<g><path style="opacity:1" fill="#665e50" d="M 140.5,138.5 C 144.5,142.167 148.5,145.833 152.5,149.5C 152.5,150.167 152.5,150.833 152.5,151.5C 147.77,147.773 143.77,143.44 140.5,138.5 Z"/></g>
<g><path style="opacity:0.481" fill="#eacc92" d="M 47.5,129.5 C 43.3931,141.474 41.2265,153.807 41,166.5C 40.6174,167.056 40.1174,167.389 39.5,167.5C 39.6044,154.178 42.2711,141.511 47.5,129.5 Z"/></g>
<g><path style="opacity:1" fill="#feedce" d="M 296.5,143.5 C 297.117,143.611 297.617,143.944 298,144.5C 299.157,148.782 299.99,153.116 300.5,157.5C 299.778,157.082 299.278,156.416 299,155.5C 300.832,175.676 298.999,195.509 293.5,215C 293.683,216.684 294.35,216.85 295.5,215.5C 295.167,216.833 294.833,218.167 294.5,219.5C 289.895,227.71 285.562,236.043 281.5,244.5C 277.55,250.719 272.883,256.386 267.5,261.5C 267.265,260.903 266.765,260.57 266,260.5C 261.49,264.042 257.657,267.542 254.5,271C 249.208,273.532 244.208,277.198 239.5,282C 233.459,284.799 227.459,287.799 221.5,291C 222.094,291.464 222.761,291.631 223.5,291.5C 218.613,293.351 213.613,295.018 208.5,296.5C 207.726,295.853 206.726,295.52 205.5,295.5C 189.789,298.545 173.956,299.212 158,297.5C 156.5,297.667 155,297.833 153.5,298C 154.416,298.278 155.082,298.778 155.5,299.5C 150.112,298.653 144.779,297.487 139.5,296C 132.452,293.973 125.785,291.14 119.5,287.5C 120.239,287.631 120.906,287.464 121.5,287C 98.4204,274.255 80.2538,256.421 67,233.5C 65.9719,230.491 65.3052,227.491 65,224.5C 68.4009,229.179 72.2342,232.679 76.5,235C 75.8333,235.333 75.1667,235.667 74.5,236C 76.0441,236.29 77.3774,236.956 78.5,238C 78.1667,238.333 77.8333,238.667 77.5,239C 86.3731,251.547 96.5397,262.381 108,271.5C 108.333,270.833 108.667,270.167 109,269.5C 109.29,271.044 109.956,272.377 111,273.5C 112,273.5 113,273.5 114,273.5C 114.359,276.544 115.026,276.878 116,274.5C 117.88,276.953 120.213,278.953 123,280.5C 123.333,280.167 123.667,279.833 124,279.5C 126.071,280.364 127.738,281.697 129,283.5C 129.333,282.833 129.667,282.167 130,281.5C 131.99,283.886 133.99,285.553 136,286.5C 136.333,285.833 136.667,285.167 137,284.5C 139.261,286.383 141.428,287.716 143.5,288.5C 144.716,287.998 145.883,287.665 147,287.5C 147.333,288.167 147.667,288.833 148,289.5C 149.667,289.5 151.333,289.5 153,289.5C 153.333,290.167 153.667,290.833 154,291.5C 154.667,288.833 155.333,288.833 156,291.5C 156.667,288.833 157.333,288.833 158,291.5C 160.035,290.626 162.368,290.293 165,290.5C 166.791,292.513 168.125,292.513 169,290.5C 169.667,293.167 170.333,293.167 171,290.5C 171.667,291.833 172.667,292.833 174,293.5C 174.667,292.167 175.333,292.167 176,293.5C 176.915,292.672 177.581,291.672 178,290.5C 178.667,294.5 179.333,294.5 180,290.5C 180.667,294.5 181.333,294.5 182,290.5C 183.684,292.459 185.684,292.459 188,290.5C 189.744,291.036 191.577,291.37 193.5,291.5C 194.541,289.009 195.374,289.009 196,291.5C 197,290.5 198,289.5 199,288.5C 200,289.167 201,289.833 202,290.5C 204.36,289.941 206.693,288.608 209,286.5C 210.016,287.634 210.683,287.301 211,285.5C 213.226,287.159 214.893,286.492 216,283.5C 216.333,284.167 216.667,284.833 217,285.5C 219.39,284.258 222.056,282.591 225,280.5C 225.333,280.833 225.667,281.167 226,281.5C 227.101,279.606 228.434,278.939 230,279.5C 230.359,276.456 231.026,276.122 232,278.5C 233.333,277.167 234.667,275.833 236,274.5C 236.333,274.833 236.667,275.167 237,275.5C 238.667,273.833 240.333,272.167 242,270.5C 242.333,270.833 242.667,271.167 243,271.5C 243.359,268.456 244.026,268.122 245,270.5C 246.667,268.5 248.333,266.5 250,264.5C 250.333,264.833 250.667,265.167 251,265.5C 251.333,264.5 251.667,263.5 252,262.5C 252.333,262.833 252.667,263.167 253,263.5C 253.359,260.456 254.026,260.122 255,262.5C 256.064,260.307 257.398,258.307 259,256.5C 262.092,255.077 264.092,252.743 265,249.5C 265.914,250.654 266.747,250.487 267.5,249C 266.167,247.16 266.334,246.66 268,247.5C 268.606,244.614 270.106,242.448 272.5,241C 272.167,240.667 271.833,240.333 271.5,240C 272.5,239.667 273.5,239.333 274.5,239C 274.5,238 274.5,237 274.5,236C 276.301,235.683 276.634,235.016 275.5,234C 278.544,233.641 278.878,232.974 276.5,232C 279.124,231.424 279.791,230.09 278.5,228C 281.544,227.641 281.878,226.974 279.5,226C 282.544,225.641 282.878,224.974 280.5,224C 281.162,222.668 282.328,221.502 284,220.5C 284.309,219.234 284.809,218.067 285.5,217C 284.209,214.91 284.876,213.576 287.5,213C 286.833,212.667 286.167,212.333 285.5,212C 286.977,210.116 288.31,208.116 289.5,206C 289.384,204.732 289.051,203.398 288.5,202C 291.167,201.333 291.167,200.667 288.5,200C 290.592,199.047 290.925,197.714 289.5,196C 290.308,195.692 290.975,195.192 291.5,194.5C 290.835,192.899 290.501,191.399 290.5,190C 292.301,189.683 292.634,189.016 291.5,188C 292.167,185.333 292.833,182.667 293.5,180C 293.825,174.766 293.159,169.432 291.5,164C 292.497,161.597 292.164,159.264 290.5,157C 291.301,152.588 292.301,148.755 293.5,145.5C 293.833,144.833 294.167,144.167 294.5,143.5C 295.429,144.55 296.095,144.55 296.5,143.5 Z"/></g>
<g><path style="opacity:1" fill="#fadeac" d="M 142.5,154.5 C 128.419,160.666 114.419,166.999 100.5,173.5C 110.146,163.188 120.146,153.188 130.5,143.5C 135.146,146.48 139.146,150.147 142.5,154.5 Z"/></g>
<g><path style="opacity:1" fill="#f9ad34" d="M 213.5,83.5 C 214.568,82.5655 215.901,82.2322 217.5,82.5C 250.129,98.3039 270.295,123.971 278,159.5C 278.699,169.522 278.532,179.522 277.5,189.5C 276.509,182.687 276.175,175.687 276.5,168.5C 275.963,156.343 272.963,145.01 267.5,134.5C 262.558,123.607 255.891,113.94 247.5,105.5C 237.878,95.6788 226.545,88.3454 213.5,83.5 Z"/></g>
<g><path style="opacity:1" fill="#febc45" d="M 142.5,154.5 C 149.833,162.5 157.5,170.167 165.5,177.5C 165.851,180.812 164.518,183.145 161.5,184.5C 136.649,196.091 111.649,207.424 86.5,218.5C 81.0085,207.88 77.6751,196.546 76.5,184.5C 83.0191,182.068 89.3524,179.401 95.5,176.5C 95.4346,176.938 95.6012,177.272 96,177.5C 97.3712,175.959 98.8712,174.625 100.5,173.5C 114.419,166.999 128.419,160.666 142.5,154.5 Z"/></g>
<g><path style="opacity:1" fill="#ffbd48" d="M 204.5,163.5 C 198.787,167.023 192.787,170.023 186.5,172.5C 190.51,167.308 195.177,163.141 200.5,160C 201.705,161.376 203.038,162.542 204.5,163.5 Z"/></g>
<g><path style="opacity:1" fill="#5a544a" d="M 192.5,151.5 C 193.598,152.601 193.765,153.934 193,155.5C 187,161.5 181,167.5 175,173.5C 174.333,172.167 173.667,172.167 173,173.5C 172.536,172.906 172.369,172.239 172.5,171.5C 173.552,171.649 174.552,171.483 175.5,171C 180.667,165.833 185.833,160.667 191,155.5C 191.791,154.255 192.291,152.922 192.5,151.5 Z"/></g>
<g><path style="opacity:1" fill="#febc45" d="M 276.5,168.5 C 276.175,175.687 276.509,182.687 277.5,189.5C 277.737,190.791 277.404,191.791 276.5,192.5C 276.631,191.761 276.464,191.094 276,190.5C 274.924,196.97 273.424,203.304 271.5,209.5C 257.555,215.701 243.555,221.701 229.5,227.5C 221.167,219.833 213.167,211.833 205.5,203.5C 205.414,202.504 205.748,201.671 206.5,201C 229.966,190.345 253.3,179.511 276.5,168.5 Z"/></g>
<g><path style="opacity:1" fill="#fff7e8" d="M 300.5,157.5 C 302.391,174.989 301.391,192.322 297.5,209.5C 296.262,211.214 295.595,213.214 295.5,215.5C 294.35,216.85 293.683,216.684 293.5,215C 298.999,195.509 300.832,175.676 299,155.5C 299.278,156.416 299.778,157.082 300.5,157.5 Z"/></g>
<g><path style="opacity:1" fill="#fde0ac" d="M 195.5,207.5 C 194.127,207.343 192.793,207.51 191.5,208C 175.753,215.975 159.753,223.475 143.5,230.5C 145.068,224.64 145.902,218.64 146,212.5C 155,203.5 164,194.5 173,185.5C 181.005,192.338 188.505,199.671 195.5,207.5 Z"/></g>
<g><path style="opacity:1" fill="#fde0ac" d="M 161.5,184.5 C 154.703,191.798 147.703,198.965 140.5,206C 129.722,205.922 119.722,208.922 110.5,215C 109.748,215.671 109.414,216.504 109.5,217.5C 108.475,217.897 108.308,218.563 109,219.5C 115.34,225.34 121.506,231.34 127.5,237.5C 120.995,241.011 114.328,244.345 107.5,247.5C 98.284,239.387 91.284,229.72 86.5,218.5C 111.649,207.424 136.649,196.091 161.5,184.5 Z"/></g>
<g><path style="opacity:0.56" fill="#ecc88b" d="M 39.5,176.5 C 41.0876,184.277 41.7543,192.277 41.5,200.5C 40.6981,199.048 40.1981,197.382 40,195.5C 39.5005,189.175 39.3338,182.842 39.5,176.5 Z"/></g>
<g><path style="opacity:1" fill="#544f46" d="M 165.5,177.5 C 167.273,178.314 167.773,179.648 167,181.5C 157.718,191.293 148.051,200.627 138,209.5C 127.575,207.695 118.408,210.695 110.5,218.5C 109.833,218.5 109.5,218.167 109.5,217.5C 109.414,216.504 109.748,215.671 110.5,215C 119.722,208.922 129.722,205.922 140.5,206C 147.703,198.965 154.703,191.798 161.5,184.5C 164.518,183.145 165.851,180.812 165.5,177.5 Z"/></g>
<g><path style="opacity:0.75" fill="#efd096" d="M 298.5,112.5 C 315.969,147.176 318.802,183.176 307,220.5C 305.96,223.823 304.46,226.823 302.5,229.5C 306.252,219.163 309.085,208.497 311,197.5C 312.265,186.389 312.765,175.889 312.5,166C 311.582,155.995 309.749,146.161 307,136.5C 304.055,128.496 301.222,120.496 298.5,112.5 Z"/></g>
<g><path style="opacity:0.322" fill="#eacd99" d="M 41.5,200.5 C 42.9434,204.615 43.9434,208.948 44.5,213.5C 42.4249,209.526 41.4249,205.192 41.5,200.5 Z"/></g>
<g><path style="opacity:1" fill="#febc45" d="M 195.5,207.5 C 203.194,215.86 211.194,223.86 219.5,231.5C 218.374,233.453 216.708,234.953 214.5,236C 190.255,246.69 166.255,257.857 142.5,269.5C 128.716,265.353 117.049,258.02 107.5,247.5C 114.328,244.345 120.995,241.011 127.5,237.5C 128.167,237.5 128.833,237.5 129.5,237.5C 131.202,240.395 133.536,242.228 136.5,243C 139.576,239.13 141.909,234.964 143.5,230.5C 159.753,223.475 175.753,215.975 191.5,208C 192.793,207.51 194.127,207.343 195.5,207.5 Z"/></g>
<g><path style="opacity:1" fill="#fee0ad" d="M 271.5,209.5 C 263.311,231.01 249.644,248.01 230.5,260.5C 202.43,276.886 173.096,279.886 142.5,269.5C 166.255,257.857 190.255,246.69 214.5,236C 216.708,234.953 218.374,233.453 219.5,231.5C 222.13,233.628 224.63,235.961 227,238.5C 229.167,236.333 231.333,234.167 233.5,232C 231.959,230.629 230.625,229.129 229.5,227.5C 243.555,221.701 257.555,215.701 271.5,209.5 Z"/></g>
<g><path style="opacity:1" fill="#fbdeab" d="M 139.5,216.5 C 139.952,222.369 139.119,228.035 137,233.5C 135.961,234.71 134.794,235.71 133.5,236.5C 127.855,230.52 122.188,224.52 116.5,218.5C 117.364,216.803 118.697,215.637 120.5,215C 125.989,212.096 131.655,211.429 137.5,213C 138.823,213.816 139.489,214.983 139.5,216.5 Z"/></g>
<g><path style="opacity:1" fill="#5a544a" d="M 139.5,216.5 C 140.117,216.611 140.617,216.944 141,217.5C 141.905,223.794 140.905,229.794 138,235.5C 136.653,237.466 135.153,237.799 133.5,236.5C 134.794,235.71 135.961,234.71 137,233.5C 139.119,228.035 139.952,222.369 139.5,216.5 Z"/></g>
<g><path style="opacity:1" fill="#d7c59f" d="M 109.5,217.5 C 109.5,218.167 109.833,218.5 110.5,218.5C 117.167,224.5 123.5,230.833 129.5,237.5C 128.833,237.5 128.167,237.5 127.5,237.5C 121.506,231.34 115.34,225.34 109,219.5C 108.308,218.563 108.475,217.897 109.5,217.5 Z"/></g>
<g><path style="opacity:1" fill="#ffc662" d="M 294.5,219.5 C 293.148,226.216 290.648,232.549 287,238.5C 285.839,241.185 284.006,243.185 281.5,244.5C 285.562,236.043 289.895,227.71 294.5,219.5 Z"/></g>
<g><path style="opacity:0.935" fill="#efd4a2" d="M 44.5,213.5 C 49.3413,226.184 55.0079,238.518 61.5,250.5C 57.0229,245.568 53.5229,239.901 51,233.5C 47.9216,227.099 45.7549,220.432 44.5,213.5 Z"/></g>
<g><path style="opacity:1" fill="#fbac2c" d="M 276.5,192.5 C 271.785,222.276 256.785,245.276 231.5,261.5C 231.5,260.833 231.167,260.5 230.5,260.5C 249.644,248.01 263.311,231.01 271.5,209.5C 273.424,203.304 274.924,196.97 276,190.5C 276.464,191.094 276.631,191.761 276.5,192.5 Z"/></g>
<g><path style="opacity:0.2" fill="#f1d89c" d="M 302.5,229.5 C 300.874,235.419 298.207,240.753 294.5,245.5C 296.659,239.849 299.326,234.516 302.5,229.5 Z"/></g>
<g><path style="opacity:0.176" fill="#ebcd95" d="M 294.5,245.5 C 293.277,249.049 291.277,252.049 288.5,254.5C 289.759,250.975 291.759,247.975 294.5,245.5 Z"/></g>
<g><path style="opacity:0.082" fill="#e3c388" d="M 63.5,253.5 C 67.4941,257.328 71.3274,261.328 75,265.5C 76.0945,267.078 76.9278,268.745 77.5,270.5C 71.3826,266.047 66.716,260.381 63.5,253.5 Z"/></g>
<g><path style="opacity:0.004" fill="#eed7ae" d="M 285.5,258.5 C 283.291,263.381 279.957,267.381 275.5,270.5C 277.789,267.352 279.955,264.019 282,260.5C 283.113,259.695 284.279,259.028 285.5,258.5 Z"/></g>
<g><path style="opacity:0.976" fill="#e5c988" d="M 77.5,270.5 C 81.4784,272.478 84.4784,275.478 86.5,279.5C 82.5,277.5 79.5,274.5 77.5,270.5 Z"/></g>
<g><path style="opacity:1" fill="#fff6e7" d="M 267.5,261.5 C 261.465,267.537 255.131,273.204 248.5,278.5C 247.833,278.5 247.5,278.833 247.5,279.5C 240.053,284.557 232.053,288.557 223.5,291.5C 222.761,291.631 222.094,291.464 221.5,291C 227.459,287.799 233.459,284.799 239.5,282C 244.208,277.198 249.208,273.532 254.5,271C 257.657,267.542 261.49,264.042 266,260.5C 266.765,260.57 267.265,260.903 267.5,261.5 Z"/></g>
<g><path style="opacity:1" fill="#ffc35b" d="M 281.5,244.5 C 281.108,246.179 280.608,247.846 280,249.5C 271.488,261.52 260.988,271.186 248.5,278.5C 255.131,273.204 261.465,267.537 267.5,261.5C 272.883,256.386 277.55,250.719 281.5,244.5 Z"/></g>
<g><path style="opacity:0.024" fill="#e9cc92" d="M 272.5,272.5 C 269.446,277.887 265.113,281.887 259.5,284.5C 263.801,280.535 268.134,276.535 272.5,272.5 Z"/></g>
<g><path style="opacity:0.69" fill="#e8c889" d="M 90.5,282.5 C 92.9806,282.774 94.6473,284.107 95.5,286.5C 93.2512,285.92 91.5846,284.587 90.5,282.5 Z"/></g>
<g><path style="opacity:0.504" fill="#ebcd98" d="M 97.5,287.5 C 100.117,288.786 102.45,290.453 104.5,292.5C 101.312,291.972 98.9786,290.305 97.5,287.5 Z"/></g>
<g><path style="opacity:1" fill="#ffc257" d="M 77.5,256.5 C 79.2279,258.226 81.2279,259.559 83.5,260.5C 88.9969,265.829 94.6635,270.996 100.5,276C 106.556,280.358 112.89,284.192 119.5,287.5C 125.785,291.14 132.452,293.973 139.5,296C 144.779,297.487 150.112,298.653 155.5,299.5C 173.462,301.504 191.129,300.504 208.5,296.5C 213.613,295.018 218.613,293.351 223.5,291.5C 232.053,288.557 240.053,284.557 247.5,279.5C 247.063,281.074 246.063,282.241 244.5,283C 238.105,286.528 231.771,290.028 225.5,293.5C 217.748,296.035 210.248,298.368 203,300.5C 202.667,300.167 202.333,299.833 202,299.5C 198.505,300.147 194.838,301.147 191,302.5C 187.202,301.856 183.535,302.523 180,304.5C 177.44,303.385 174.94,303.385 172.5,304.5C 171.692,304.192 171.025,303.692 170.5,303C 134.028,300.774 103.028,285.94 77.5,258.5C 77.5,257.833 77.5,257.167 77.5,256.5 Z"/></g>
<g><path style="opacity:1" fill="#fff8ec" d="M 208.5,296.5 C 191.129,300.504 173.462,301.504 155.5,299.5C 155.082,298.778 154.416,298.278 153.5,298C 155,297.833 156.5,297.667 158,297.5C 173.956,299.212 189.789,298.545 205.5,295.5C 206.726,295.52 207.726,295.853 208.5,296.5 Z"/></g>
<g><path style="opacity:0.184" fill="#f3d9a7" d="M 104.5,292.5 C 123.585,303.196 143.919,309.862 165.5,312.5C 143.048,311.793 122.714,305.126 104.5,292.5 Z"/></g>
<g><path style="opacity:0.351" fill="#e6ca95" d="M 246.5,293.5 C 244.421,295.873 241.754,297.206 238.5,297.5C 240.849,295.659 243.515,294.326 246.5,293.5 Z"/></g>
<g><path style="opacity:0.72" fill="#ebd0a0" d="M 238.5,297.5 C 235.227,300.144 231.56,302.311 227.5,304C 220.693,306.618 213.693,308.452 206.5,309.5C 217.313,306.115 227.98,302.115 238.5,297.5 Z"/></g>
<g><path style="opacity:0.031" fill="#f1d69c" d="M 206.5,309.5 C 200.202,312.034 193.536,313.034 186.5,312.5C 192.953,310.958 199.62,309.958 206.5,309.5 Z"/></g>
</svg>
