<?xml version="1.0" encoding="UTF-8"?>
<!-- Generator: visioncortex VTracer 0.6.3 -->
<svg version="1.1" xmlns="http://www.w3.org/2000/svg" width="575" height="575">
<path d="M0 0 C1.31 0.01 2.62 0.01 3.97 0.02 C19.79 0.19 34.84 2.05 50.31 5.25 C51.01 5.39 51.71 5.54 52.44 5.69 C54.31 6.25 54.31 6.25 57.31 8.25 C59.94 8.42 59.94 8.42 62.31 8.25 C62.31 9.24 62.31 10.23 62.31 11.25 C63.04 11.36 63.78 11.48 64.53 11.6 C67.37 12.26 69.32 13.21 71.81 14.69 C74.19 16.07 76.36 17.27 78.94 18.25 C82.39 19.7 85.52 21.74 88.31 24.25 C88.31 24.91 88.31 25.57 88.31 26.25 C88.88 26.5 89.46 26.75 90.05 27 C92.66 28.44 94.46 30.13 96.56 32.25 C97.62 33.3 97.62 33.3 98.7 34.38 C100.31 36.25 100.31 36.25 100.31 38.25 C101.3 38.25 102.29 38.25 103.31 38.25 C103.31 39.9 103.31 41.55 103.31 43.25 C104.3 43.25 105.29 43.25 106.31 43.25 C106.49 44.11 106.49 44.11 106.67 44.98 C107.36 47.42 108.35 49.34 109.56 51.56 C112.19 56.66 113.98 61.88 115.7 67.34 C116.53 70.55 116.53 70.55 118.31 73.25 C122.22 95.24 122.43 115.56 113.31 136.25 C112.87 137.6 112.45 138.95 112.06 140.31 C109.93 146.96 106.52 153.07 103.31 159.25 C102.65 159.25 101.99 159.25 101.31 159.25 C100.24 161.9 99.22 164.53 98.31 167.25 C97.65 167.25 96.99 167.25 96.31 167.25 C95.98 168.57 95.65 169.89 95.31 171.25 C96.3 170.92 97.29 170.59 98.31 170.25 C98.31 171.24 98.31 172.23 98.31 173.25 C97.58 173.15 96.85 173.04 96.09 172.93 C93.13 172.99 93.13 172.99 91.07 175.41 C90.34 176.37 89.62 177.33 88.88 178.31 C88.1 179.32 87.32 180.32 86.52 181.36 C85.79 182.31 85.06 183.27 84.31 184.25 C80.84 188.48 77.18 192.38 73.31 196.25 C72.31 197.48 71.31 198.71 70.31 199.94 C67.92 202.78 65.99 204.28 62.31 205.25 C62.31 205.91 62.31 206.57 62.31 207.25 C61.65 207.58 60.99 207.91 60.31 208.25 C60.97 208.25 61.63 208.25 62.31 208.25 C61.97 209.64 61.97 209.64 61.62 211.06 C60.95 214.22 60.95 214.22 62.75 216.12 C63.52 216.68 63.52 216.68 64.31 217.25 C65.3 216.92 66.29 216.59 67.31 216.25 C66.65 217.57 65.99 218.89 65.31 220.25 C67.56 222.83 67.56 222.83 70.31 225.25 C71.63 225.25 72.95 225.25 74.31 225.25 C74.46 226.12 74.6 226.98 74.75 227.88 C76.77 232.24 79.35 233.57 83.41 235.95 C84.04 236.38 84.67 236.81 85.31 237.25 C85.31 237.91 85.31 238.57 85.31 239.25 C87.23 239.22 87.23 239.22 89.19 239.19 C93.06 239.12 93.06 239.12 95.31 240.25 C94.98 241.57 94.65 242.89 94.31 244.25 C95.96 244.25 97.61 244.25 99.31 244.25 C99.64 245.24 99.97 246.23 100.31 247.25 C102.68 248.5 104.97 249.55 107.44 250.56 C108.15 250.86 108.87 251.17 109.6 251.48 C111.83 252.41 114.07 253.33 116.31 254.25 C117 254.53 117.69 254.82 118.39 255.11 C125.04 257.85 131.69 260.49 138.54 262.67 C140.31 263.25 140.31 263.25 142.75 264.31 C145.1 265.17 147.18 265.62 149.62 266.06 C157.04 267.45 164.15 269.92 171.31 272.25 C170.31 275.25 170.31 275.25 168.38 276.28 C167.14 276.73 167.14 276.73 165.88 277.19 C164.97 277.52 164.07 277.86 163.14 278.21 C162.2 278.55 161.27 278.9 160.31 279.25 C158.6 279.95 156.89 280.66 155.19 281.38 C152.17 282.59 149.24 283.58 146.06 284.31 C142.38 285.06 142.38 285.06 139.62 286.75 C134.44 289.1 128.93 289.54 123.31 290.25 C123.31 290.91 123.31 291.57 123.31 292.25 C122.32 292.33 121.33 292.42 120.31 292.5 C117.36 292.91 115.18 293.71 112.56 295.12 C108.47 297.33 104.33 298.45 99.83 299.54 C97.33 300.16 97.33 300.16 95.25 301.3 C92.06 302.87 88.83 302.9 85.31 303.25 C84.98 304.57 84.65 305.89 84.31 307.25 C82.99 307.25 81.67 307.25 80.31 307.25 C80.31 306.59 80.31 305.93 80.31 305.25 C79.32 305.91 78.33 306.57 77.31 307.25 C74.53 308.05 71.73 308.71 68.91 309.37 C66.25 310.27 65.08 311.11 63.31 313.25 C62.32 312.92 61.33 312.59 60.31 312.25 C57.15 313.62 57.15 313.62 54.31 315.25 C54.31 315.91 54.31 316.57 54.31 317.25 C53.32 317.25 52.33 317.25 51.31 317.25 C51.31 316.59 51.31 315.93 51.31 315.25 C50.65 315.58 49.99 315.91 49.31 316.25 C42.47 316.94 39.16 315.54 33.81 311.38 C33.18 310.91 32.55 310.45 31.9 309.98 C30.32 308.8 28.81 307.53 27.31 306.25 C27.31 305.59 27.31 304.93 27.31 304.25 C25.66 303.59 24.01 302.93 22.31 302.25 C22.31 301.59 22.31 300.93 22.31 300.25 C21.48 299.88 21.48 299.88 20.62 299.5 C18.31 298.25 18.31 298.25 15.88 296.19 C13.22 294.18 11.57 293.62 8.31 293.25 C8.31 291.93 8.31 290.61 8.31 289.25 C7.03 287.56 7.03 287.56 5.31 286.12 C3.62 284.62 3.62 284.62 2.31 283.25 C2.31 282.59 2.31 281.93 2.31 281.25 C1.32 280.92 0.33 280.59 -0.69 280.25 C-2.23 278.56 -3.7 276.8 -5.12 275 C-5.89 274.05 -6.65 273.09 -7.43 272.11 C-8.18 271.17 -8.92 270.22 -9.69 269.25 C-10.44 268.35 -11.2 267.45 -11.97 266.52 C-13.69 264.25 -13.69 264.25 -13.69 262.25 C-14.35 262.25 -15.01 262.25 -15.69 262.25 C-17 260.31 -17 260.31 -18.69 257.25 C-19.12 256.5 -19.55 255.75 -19.99 254.98 C-23.69 248.51 -23.69 248.51 -23.69 246.25 C-24.35 246.25 -25.01 246.25 -25.69 246.25 C-26.71 244.59 -27.71 242.93 -28.69 241.25 C-29.35 240.92 -30.01 240.59 -30.69 240.25 C-31.04 238.59 -31.37 236.92 -31.69 235.25 C-32.48 233.21 -33.32 231.19 -34.19 229.19 C-35.62 225.89 -36.94 222.77 -37.69 219.25 C-38.35 219.25 -39.01 219.25 -39.69 219.25 C-40.14 217.33 -40.6 215.41 -41.05 213.49 C-41.66 211.21 -41.66 211.21 -42.63 208.93 C-45.9 200.63 -47.34 192.06 -48.38 183.25 C-48.5 182.25 -48.63 181.24 -48.77 180.21 C-49.58 173.53 -49.84 166.98 -49.69 160.25 C-50.35 160.25 -51.01 160.25 -51.69 160.25 C-51.44 158.38 -51.44 158.38 -50.69 156.25 C-48.62 155 -48.62 155 -46.69 154.25 C-44.35 155.9 -42.41 157.54 -40.44 159.62 C-37.13 162.78 -33.64 164.98 -29.69 167.25 C-28.74 167.81 -27.79 168.36 -26.81 168.94 C-23.26 170.43 -19.84 171.15 -16.05 171.82 C-13.9 172.21 -11.8 172.69 -9.69 173.25 C-9.69 172.59 -9.69 171.93 -9.69 171.25 C-8.7 171.25 -7.71 171.25 -6.69 171.25 C-6.69 171.91 -6.69 172.57 -6.69 173.25 C6.44 171.2 19.25 168.65 29.31 159.25 C29.64 158.59 29.97 157.93 30.31 157.25 C31.49 156.82 31.49 156.82 32.69 156.38 C35.67 155.1 36.71 154.03 38.31 151.25 C38.31 150.26 38.31 149.27 38.31 148.25 C38.91 148.18 39.5 148.11 40.12 148.04 C44.53 146.45 46.31 141.25 48.31 137.25 C49.19 134.9 49.78 132.71 50.31 130.25 C49.65 130.25 48.99 130.25 48.31 130.25 C48.31 129.59 48.31 128.93 48.31 128.25 C48.97 128.25 49.63 128.25 50.31 128.25 C51.31 110.23 51.31 110.23 44.31 94.25 C43.55 93.26 42.79 92.27 42 91.25 C31.9 79.56 18.07 74.9 2.94 73.56 C0.73 73.44 -1.48 73.34 -3.69 73.25 C-4.72 73.19 -5.75 73.12 -6.81 73.05 C-20.47 72.56 -34.65 75.3 -47.69 79.25 C-49.16 79.66 -50.63 80.07 -52.1 80.47 C-52.86 80.68 -53.62 80.89 -54.41 81.11 C-55.97 81.54 -57.54 81.97 -59.1 82.39 C-63.34 83.56 -67.53 84.81 -71.69 86.25 C-71.69 86.91 -71.69 87.57 -71.69 88.25 C-72.38 88.42 -73.07 88.59 -73.78 88.77 C-87.22 92.23 -98.65 98.78 -110.46 105.93 C-114.39 108.26 -118.17 110.38 -122.69 111.25 C-122.69 111.91 -122.69 112.57 -122.69 113.25 C-124.38 114.62 -124.38 114.62 -126.81 116.25 C-132.98 120.44 -139.05 124.75 -145.1 129.11 C-146.51 130.12 -147.93 131.12 -149.36 132.12 C-150.09 132.64 -150.81 133.15 -151.56 133.69 C-152.18 134.12 -152.79 134.55 -153.43 135 C-153.84 135.41 -154.26 135.82 -154.69 136.25 C-154.69 137.24 -154.69 138.23 -154.69 139.25 C-156.34 139.25 -157.99 139.25 -159.69 139.25 C-159.69 139.91 -159.69 140.57 -159.69 141.25 C-161.3 142.91 -161.3 142.91 -163.44 144.75 C-164.13 145.36 -164.83 145.97 -165.55 146.59 C-167.53 148.13 -169.41 149.22 -171.69 150.25 C-171.69 150.91 -171.69 151.57 -171.69 152.25 C-172.35 152.58 -173.01 152.91 -173.69 153.25 C-173.69 154.57 -173.69 155.89 -173.69 157.25 C-174.57 157.4 -174.57 157.4 -175.46 157.55 C-180.36 159.09 -183.76 163.98 -186.69 168 C-188.03 170.34 -188.03 170.34 -186.69 173.25 C-188.01 172.92 -189.33 172.59 -190.69 172.25 C-192.01 174.89 -193.33 177.53 -194.69 180.25 C-195.35 180.25 -196.01 180.25 -196.69 180.25 C-196.95 180.82 -197.21 181.38 -197.48 181.96 C-198.78 184.43 -200.29 186.56 -201.94 188.81 C-205.15 193.33 -207.85 197.99 -210.43 202.9 C-211.69 205.25 -211.69 205.25 -213.69 208.25 C-213.85 211.38 -213.85 211.38 -213.69 214.25 C-214.68 214.58 -215.67 214.91 -216.69 215.25 C-217.84 217.53 -217.84 217.53 -218.69 220.31 C-219.03 221.32 -219.37 222.32 -219.71 223.36 C-220.2 224.79 -220.2 224.79 -220.69 226.25 C-221.2 227.54 -221.72 228.84 -222.25 230.12 C-227.81 245.33 -229.37 262.26 -223.66 277.62 C-222.72 280.16 -222.15 282.59 -221.69 285.25 C-221.03 285.25 -220.37 285.25 -219.69 285.25 C-219.36 287.23 -219.03 289.21 -218.69 291.25 C-217.9 291.33 -217.12 291.42 -216.31 291.5 C-213.69 292.25 -213.69 292.25 -212.56 294.19 C-212.27 294.87 -211.99 295.55 -211.69 296.25 C-208.82 298.35 -208.82 298.35 -205.69 299.25 C-205.36 301.23 -205.03 303.21 -204.69 305.25 C-202.38 305.91 -200.07 306.57 -197.69 307.25 C-197.69 307.91 -197.69 308.57 -197.69 309.25 C-195.05 309.25 -192.41 309.25 -189.69 309.25 C-189.36 310.57 -189.03 311.89 -188.69 313.25 C-185.68 314.18 -184.82 314.29 -181.69 313.25 C-182.02 314.24 -182.35 315.23 -182.69 316.25 C-181.04 316.58 -179.39 316.91 -177.69 317.25 C-177.69 318.24 -177.69 319.23 -177.69 320.25 C-169.26 321.97 -169.26 321.97 -160.69 322.25 C-160.36 322.91 -160.03 323.57 -159.69 324.25 C-112.19 341.65 -54.44 340.81 -4.69 334.25 C-4.69 333.59 -4.69 332.93 -4.69 332.25 C-4.03 332.25 -3.37 332.25 -2.69 332.25 C-2.69 332.91 -2.69 333.57 -2.69 334.25 C-2.03 333.92 -1.37 333.59 -0.69 333.25 C1.22 332.93 3.14 332.64 5.05 332.38 C12.26 331.31 19.33 329.8 26.44 328.19 C27.64 327.92 28.85 327.65 30.09 327.37 C36.26 326.02 36.26 326.02 42.31 324.25 C43.84 323.96 45.37 323.7 46.91 323.45 C47.79 323.3 48.68 323.14 49.59 322.98 C51.45 322.66 53.31 322.35 55.17 322.06 C57.66 321.61 59.95 321.16 62.31 320.25 C64.06 317.78 64.06 317.78 64.31 315.25 C66.29 315.25 68.27 315.25 70.31 315.25 C70.31 315.91 70.31 316.57 70.31 317.25 C70.88 317.07 71.44 316.89 72.02 316.7 C74.58 315.88 77.13 315.06 79.69 314.25 C80.58 313.96 81.47 313.68 82.38 313.38 C83.23 313.11 84.08 312.84 84.96 312.56 C85.75 312.31 86.53 312.06 87.34 311.8 C89.31 311.25 89.31 311.25 91.31 311.25 C91.64 310.26 91.97 309.27 92.31 308.25 C92.94 308.24 93.56 308.23 94.21 308.22 C102.77 307.8 109.96 305.05 117.81 301.81 C119.09 301.3 120.36 300.79 121.63 300.29 C128.2 297.7 128.2 297.7 134.31 294.25 C135.16 294.15 136 294.04 136.88 293.94 C140.93 293.13 144 291.49 147.65 289.6 C150.28 288.27 152.92 287.03 155.62 285.88 C156.4 285.54 157.18 285.2 157.99 284.85 C160.76 284.13 162.58 284.51 165.31 285.25 C164.81 289.28 164 291.05 160.88 293.62 C159.81 294.51 159.81 294.51 158.72 295.41 C155.34 297.99 151.86 300.41 148.32 302.77 C146.2 304.1 146.2 304.1 145.31 306.25 C143.66 306.25 142.01 306.25 140.31 306.25 C140.31 306.91 140.31 307.57 140.31 308.25 C137.86 309.91 137.86 309.91 134.62 311.75 C133.57 312.36 132.51 312.97 131.43 313.59 C124.55 317.25 124.55 317.25 120.31 317.25 C120.31 317.91 120.31 318.57 120.31 319.25 C119.72 319.48 119.12 319.72 118.51 319.96 C111.09 322.9 103.78 326.05 96.46 329.25 C95.57 329.63 94.67 330.02 93.75 330.42 C92.94 330.77 92.14 331.13 91.31 331.49 C89.31 332.25 89.31 332.25 87.31 332.25 C87.31 332.91 87.31 333.57 87.31 334.25 C85.33 334.58 83.35 334.91 81.31 335.25 C81.64 335.58 81.97 335.91 82.31 336.25 C84.85 335.74 87.31 335.16 89.81 334.5 C90.52 334.33 91.22 334.16 91.94 333.98 C94.21 333.42 94.21 333.42 97.31 332.25 C97.64 331.26 97.97 330.27 98.31 329.25 C98.97 329.25 99.63 329.25 100.31 329.25 C100.31 329.91 100.31 330.57 100.31 331.25 C101.36 330.82 102.41 330.38 103.49 329.94 C104.87 329.37 106.25 328.81 107.62 328.25 C108.32 327.96 109.01 327.68 109.72 327.38 C112.73 326.16 115.03 325.25 118.31 325.25 C118.31 324.26 118.31 323.27 118.31 322.25 C119.3 322.58 120.29 322.91 121.31 323.25 C124.22 322.38 124.22 322.38 127.31 321 C128.89 320.34 128.89 320.34 130.5 319.67 C133.01 318.4 134.52 317.37 136.31 315.25 C135.65 314.59 134.99 313.93 134.31 313.25 C134.97 312.92 135.63 312.59 136.31 312.25 C138.88 313.29 140.34 314.28 142.31 316.25 C142.97 316.25 143.63 316.25 144.31 316.25 C144.31 316.91 144.31 317.57 144.31 318.25 C143.32 318.91 142.33 319.57 141.31 320.25 C141.04 321.01 140.78 321.78 140.5 322.56 C139.27 325.34 138.51 326.08 136.19 327.88 C135.24 328.66 134.29 329.44 133.31 330.25 C133.31 331.24 133.31 332.23 133.31 333.25 C132.48 333.34 132.48 333.34 131.62 333.44 C128.38 334.58 126.69 336.81 124.31 339.25 C123.32 339.58 122.33 339.91 121.31 340.25 C120.98 341.24 120.65 342.23 120.31 343.25 C118.65 343.92 116.98 344.58 115.31 345.25 C114.98 346.24 114.65 347.23 114.31 348.25 C112.65 348.98 110.99 349.7 109.3 350.36 C105.91 351.87 103.21 353.94 100.31 356.25 C100.31 356.91 100.31 357.57 100.31 358.25 C99.32 357.92 98.33 357.59 97.31 357.25 C94.75 358.37 92.34 359.56 89.88 360.88 C88.41 361.63 86.95 362.38 85.48 363.13 C84.77 363.5 84.05 363.86 83.31 364.24 C74.38 368.74 64.93 371.8 55.43 374.84 C54.56 375.12 53.68 375.41 52.78 375.7 C51.6 376.08 51.6 376.08 50.39 376.46 C48.06 377.26 48.06 377.26 45.31 379.25 C43.57 379.61 41.82 379.89 40.06 380.12 C32.64 381.25 25.52 383.22 18.31 385.25 C27.65 385.58 36 385.2 45.15 382.97 C47.91 382.34 50.44 382 53.25 381.81 C59.08 381.37 64.59 379.68 70.19 378.09 C73.31 377.25 73.31 377.25 75.31 377.25 C75.31 376.59 75.31 375.93 75.31 375.25 C76.47 375.17 77.62 375.08 78.81 375 C83.53 374.44 87.22 372.59 91.31 370.25 C91.31 369.26 91.31 368.27 91.31 367.25 C91.97 367.25 92.63 367.25 93.31 367.25 C93.31 368.24 93.31 369.23 93.31 370.25 C97.23 368.72 101.15 367.17 105.06 365.62 C106.15 365.2 107.25 364.77 108.37 364.33 C121.43 360.22 121.43 360.22 131.31 352.25 C132.98 351.91 134.65 351.58 136.31 351.25 C138.09 350.4 139.84 349.47 141.56 348.5 C142.52 347.97 143.47 347.43 144.45 346.88 C145.39 346.34 146.34 345.81 147.31 345.25 C149 344.29 150.69 343.33 152.38 342.38 C153.09 341.97 153.8 341.56 154.54 341.13 C156.31 340.25 156.31 340.25 158.31 340.25 C158.31 339.26 158.31 338.27 158.31 337.25 C158.87 337.13 159.43 337 160 336.88 C162.55 336.18 164.91 335.36 167.31 334.25 C167.64 333.59 167.97 332.93 168.31 332.25 C168.85 332.13 169.39 332.01 169.95 331.89 C173.41 330.95 176.16 328.96 179.12 327 C179.75 326.59 180.37 326.19 181.01 325.77 C188.67 321.43 188.67 321.43 194.31 315.25 C194.88 315.12 195.45 314.98 196.04 314.85 C200.04 313.8 203.19 311.08 206.56 308.75 C209.48 307.16 211.05 306.92 214.31 307.25 C214.64 309.89 214.97 312.53 215.31 315.25 C214.36 315.33 213.41 315.42 212.44 315.5 C211.41 315.75 210.38 316 209.31 316.25 C208.62 317.57 207.96 318.91 207.31 320.25 C205.54 322 205.54 322 203.5 323.69 C201.19 325.61 199.02 327.55 196.89 329.69 C194.32 332.25 191.64 334.53 188.81 336.81 C187.89 337.56 186.98 338.3 186.03 339.07 C185.13 339.79 184.24 340.51 183.31 341.25 C182.42 342 181.52 342.75 180.59 343.53 C178.31 345.25 178.31 345.25 176.31 345.25 C176.31 345.91 176.31 346.57 176.31 347.25 C174.59 348.46 172.81 349.6 171 350.69 C167.71 352.68 165.01 354.54 162.31 357.25 C159.13 358.44 159.13 358.44 156.31 359.25 C156.31 359.91 156.31 360.57 156.31 361.25 C153.88 362.95 151.47 364.52 148.94 366.06 C148.2 366.52 147.46 366.97 146.7 367.44 C142.22 370.17 137.72 372.73 132.98 374.98 C130.86 375.99 128.77 377.04 126.68 378.11 C117.72 382.71 108.7 386.61 99.31 390.25 C97.25 391.1 95.18 391.95 93.12 392.81 C92.17 393.21 91.21 393.61 90.23 394.02 C88.19 394.88 86.17 395.75 84.15 396.64 C78.77 398.97 74.17 400.57 68.31 401.25 C67.19 401.69 66.07 402.13 64.91 402.59 C59.26 404.76 53.41 405.97 47.5 407.25 C46.31 407.51 45.11 407.77 43.88 408.04 C28.79 411.3 13.63 413.43 -1.69 415.25 C-3.01 415.41 -4.34 415.58 -5.66 415.75 C-6.67 415.87 -6.67 415.87 -7.7 416 C-9.57 416.24 -11.45 416.48 -13.32 416.71 C-52.7 421.44 -96.51 424.42 -135.69 417.25 C-135.69 417.91 -135.69 418.57 -135.69 419.25 C-137.01 419.25 -138.33 419.25 -139.69 419.25 C-139.69 418.26 -139.69 417.27 -139.69 416.25 C-141.57 416.28 -141.57 416.28 -143.5 416.31 C-148.93 416.32 -154.29 415.82 -159.69 415.25 C-159.69 414.59 -159.69 413.93 -159.69 413.25 C-160.27 413.21 -160.85 413.18 -161.45 413.14 C-170.87 412.38 -179.76 410.42 -188.32 406.37 C-191.22 405 -194.17 403.75 -197.12 402.5 C-198.13 402.07 -199.14 401.64 -200.18 401.2 C-202.55 400.13 -202.55 400.13 -204.69 400.25 C-204.69 399.59 -204.69 398.93 -204.69 398.25 C-205.74 398 -206.79 397.75 -207.88 397.5 C-211.59 396.63 -213.74 394.63 -216.69 392.25 C-220.37 389.8 -224.13 387.47 -227.89 385.14 C-228.63 384.67 -229.38 384.2 -230.14 383.71 C-230.82 383.29 -231.51 382.86 -232.21 382.42 C-232.94 381.84 -232.94 381.84 -233.69 381.25 C-233.69 380.59 -233.69 379.93 -233.69 379.25 C-234.26 378.98 -234.84 378.71 -235.44 378.44 C-237.69 377.25 -237.69 377.25 -239.75 375.62 C-241.7 373.96 -241.7 373.96 -244.69 374.25 C-245.1 373.12 -245.51 371.98 -245.94 370.81 C-247.25 367.15 -247.25 367.15 -249.88 366.31 C-250.47 366.29 -251.07 366.27 -251.69 366.25 C-251.84 365.41 -251.84 365.41 -252 364.56 C-253.06 361.01 -254.75 358.18 -257.38 355.56 C-257.81 355.13 -258.24 354.7 -258.69 354.25 C-258.69 353.59 -258.69 352.93 -258.69 352.25 C-259.68 352.25 -260.67 352.25 -261.69 352.25 C-261.69 350.6 -261.69 348.95 -261.69 347.25 C-262.35 347.25 -263.01 347.25 -263.69 347.25 C-266.49 341.34 -269.13 335.62 -270.69 329.25 C-271.68 329.25 -272.67 329.25 -273.69 329.25 C-273.36 328.26 -273.03 327.27 -272.69 326.25 C-273.51 323.46 -274.4 320.83 -275.44 318.12 C-275.7 317.38 -275.97 316.64 -276.24 315.88 C-276.96 313.96 -277.82 312.1 -278.69 310.25 C-279.68 309.92 -280.67 309.59 -281.69 309.25 C-281.69 308.26 -281.69 307.27 -281.69 306.25 C-280.7 306.25 -279.71 306.25 -278.69 306.25 C-278.9 305 -278.9 305 -279.12 303.72 C-281.35 290.05 -282.09 276.59 -282.06 262.75 C-282.06 261.83 -282.06 260.92 -282.06 259.98 C-282.03 241.64 -280.64 224.28 -274.58 206.85 C-273.88 204.82 -273.27 202.76 -272.69 200.69 C-271.52 196.67 -270.07 192.8 -268.59 188.9 C-267.36 185.28 -266.69 182.07 -266.69 178.25 C-266.03 178.25 -265.37 178.25 -264.69 178.25 C-263.34 175.9 -262.01 173.55 -260.69 171.19 C-260.31 170.53 -259.92 169.87 -259.53 169.2 C-257 164.61 -256.25 161.49 -256.69 156.25 C-255.37 155.92 -254.05 155.59 -252.69 155.25 C-252.19 152.28 -252.19 152.28 -251.69 149.25 C-250.7 148.92 -249.71 148.59 -248.69 148.25 C-247.08 145.93 -247.08 145.93 -245.62 143.19 C-244.09 140.4 -244.09 140.4 -242.69 138.25 C-242.03 138.25 -241.37 138.25 -240.69 138.25 C-240.63 137.53 -240.56 136.81 -240.5 136.06 C-239.44 132.4 -237.36 130.92 -234.69 128.25 C-234.34 127.18 -233.99 126.11 -233.62 125 C-233.32 124.09 -233.01 123.19 -232.69 122.25 C-230.56 121.38 -230.56 121.38 -228.69 121.25 C-228.69 120.26 -228.69 119.27 -228.69 118.25 C-228.03 118.25 -227.37 118.25 -226.69 118.25 C-226.6 117.3 -226.52 116.35 -226.44 115.38 C-226.19 114.34 -225.94 113.31 -225.69 112.25 C-223.81 111.19 -223.81 111.19 -221.69 110.25 C-220.68 108.59 -219.68 106.92 -218.69 105.25 C-217.8 104.57 -216.91 103.89 -216 103.19 C-214.86 102.23 -214.86 102.23 -213.69 101.25 C-213.69 99.93 -213.69 98.61 -213.69 97.25 C-213.11 97.19 -212.53 97.13 -211.94 97.06 C-208.8 95.93 -207.6 93.91 -205.69 91.25 C-206.35 91.25 -207.01 91.25 -207.69 91.25 C-207.19 89.27 -207.19 89.27 -206.69 87.25 C-205.74 87.31 -204.79 87.37 -203.81 87.44 C-202.27 87.34 -202.27 87.34 -200.69 87.25 C-199.7 85.76 -199.7 85.76 -198.69 84.25 C-198.03 84.25 -197.37 84.25 -196.69 84.25 C-196.69 83.59 -196.69 82.93 -196.69 82.25 C-196.03 82.25 -195.37 82.25 -194.69 82.25 C-194.69 81.59 -194.69 80.93 -194.69 80.25 C-193.05 78.88 -191.38 77.55 -189.69 76.25 C-189.24 75.79 -188.8 75.34 -188.34 74.87 C-185.45 72.03 -182.16 69.67 -178.96 67.19 C-176.51 65.28 -176.51 65.28 -174.69 62.25 C-173.36 61.9 -172.02 61.57 -170.69 61.25 C-168.92 60.17 -167.19 59.01 -165.5 57.81 C-164.62 57.2 -163.74 56.58 -162.83 55.94 C-160.6 54.43 -160.6 54.43 -159.69 52.25 C-156.82 50.5 -153.97 48.88 -150.95 47.4 C-145.9 44.93 -141.11 42.16 -136.31 39.25 C-121.26 30.25 -121.26 30.25 -115.69 30.25 C-115.69 29.59 -115.69 28.93 -115.69 28.25 C-115.09 28.02 -114.5 27.79 -113.89 27.55 C-109.09 25.66 -104.34 23.7 -99.62 21.62 C-98.25 21.02 -98.25 21.02 -96.84 20.4 C-94.54 19.44 -94.54 19.44 -93.69 17.25 C-92.84 17.3 -91.98 17.36 -91.11 17.41 C-87.19 17.23 -84.61 16.21 -81 14.69 C-65.69 8.59 -49.04 4.15 -32.61 2.64 C-29.09 2.29 -25.65 1.77 -22.16 1.22 C-14.74 0.15 -7.48 -0.06 0 0 Z " fill="#FEFEFE" transform="translate(322.6875,80.75)"/>
<path d="M0 0 C-0.02 1.14 -0.02 1.14 -0.04 2.3 C-0.04 3.29 -0.05 4.29 -0.06 5.31 C-0.08 6.79 -0.08 6.79 -0.1 8.3 C-0.12 11.1 -0.12 11.1 1 14 C0.67 14.66 0.34 15.32 0 16 C-0.66 16 -1.32 16 -2 16 C-2.17 17.01 -2.17 17.01 -2.35 18.05 C-3.33 23.61 -4.46 29.09 -5.8 34.57 C-9.15 48.34 -12 62.78 -12 77 C-12.66 77 -13.32 77 -14 77 C-14.06 77.57 -14.12 78.14 -14.18 78.72 C-14.7 83.5 -15.29 88.25 -16 93 C-16.66 93 -17.32 93 -18 93 C-18 96.96 -18 100.92 -18 105 C-18.66 105 -19.32 105 -20 105 C-20.13 106.12 -20.25 107.24 -20.38 108.39 C-20.98 113.21 -21.95 117.93 -22.94 122.69 C-24.3 129.33 -25.51 135.96 -26.47 142.67 C-27.02 146.12 -27.68 149.53 -28.37 152.95 C-28.57 153.93 -28.57 153.93 -28.77 154.92 C-29.04 156.28 -29.32 157.63 -29.59 158.99 C-30.23 162.14 -30.87 165.3 -31.5 168.46 C-31.75 169.69 -31.99 170.91 -32.24 172.17 C-34.86 185.23 -37.47 198.29 -39.77 211.4 C-39.91 212.14 -40.04 212.88 -40.17 213.64 C-40.43 215.04 -40.67 216.45 -40.91 217.86 C-41.51 221.19 -42.09 223.14 -44 226 C-48.82 225.59 -53.64 225.18 -58.46 224.77 C-60.1 224.63 -61.73 224.5 -63.37 224.36 C-65.73 224.16 -68.1 223.96 -70.46 223.75 C-71.18 223.69 -71.9 223.63 -72.64 223.57 C-76.29 223.26 -79.92 222.9 -83.56 222.48 C-87.58 222.03 -91.59 221.75 -95.63 221.54 C-97.03 221.46 -98.43 221.38 -99.82 221.3 C-101.98 221.18 -104.14 221.06 -106.29 220.95 C-108.41 220.84 -110.52 220.72 -112.63 220.6 C-113.88 220.53 -115.13 220.46 -116.41 220.39 C-120.15 219.98 -123.45 219.24 -127 218 C-128.44 215.88 -128.44 215.88 -129 214 C-128.34 213.67 -127.68 213.34 -127 213 C-126.76 211.12 -126.54 209.23 -126.35 207.34 C-125.76 203.4 -124.37 199.73 -123 196 C-123.66 196 -124.32 196 -125 196 C-125 195.01 -125 194.02 -125 193 C-124.01 193 -123.02 193 -122 193 C-118.33 177.91 -114.76 162.87 -112.53 147.49 C-112 145 -112 145 -110.95 142.96 C-109.8 140.58 -109.8 138.89 -109.88 136.25 C-109.89 135.45 -109.91 134.65 -109.93 133.83 C-109.95 133.22 -109.98 132.62 -110 132 C-109.01 131.67 -108.02 131.34 -107 131 C-105.54 124 -105.54 124 -104.44 116.94 C-104 114 -104 114 -103 113 C-102.71 110.29 -102.55 107.58 -102.38 104.86 C-101.99 101.94 -101.14 99.7 -100 97 C-105.32 97.55 -110.64 98.1 -115.96 98.65 C-117.77 98.84 -119.58 99.03 -121.39 99.22 C-123.99 99.48 -126.6 99.76 -129.2 100.03 C-130 100.11 -130.81 100.19 -131.64 100.28 C-135.48 100.68 -139.23 101.15 -143 102 C-144.37 98.18 -143.68 94.93 -143 91 C-142.46 91.27 -141.93 91.54 -141.38 91.81 C-138.7 92.29 -138.7 92.29 -136.06 89.75 C-135.6 89.31 -135.14 88.87 -134.66 88.42 C-132.59 86.65 -130.34 85.39 -128 84 C-125.18 81.98 -122.4 79.91 -119.62 77.84 C-117.45 76.32 -115.41 75.09 -113 74 C-113.33 73.01 -113.66 72.02 -114 71 C-112.88 71.08 -112.88 71.08 -111.73 71.16 C-108.58 70.98 -107.64 70.36 -105.25 68.38 C-102.49 66.16 -99.72 64.11 -96.75 62.19 C-92.01 59.07 -87.52 55.66 -82.99 52.24 C-72.06 44.05 -72.06 44.05 -66.06 40.81 C-63.09 39.05 -61.97 37.72 -60 35 C-59.4 34.85 -58.8 34.7 -58.18 34.55 C-55.66 33.91 -53.93 32.85 -51.75 31.44 C-50.69 30.75 -50.69 30.75 -49.61 30.06 C-49.08 29.71 -48.55 29.36 -48 29 C-48.5 27.02 -48.5 27.02 -49 25 C-48.11 24.84 -48.11 24.84 -47.21 24.67 C-42.54 23.73 -39.01 22.67 -35 20 C-34.34 20 -33.68 20 -33 20 C-33 19.34 -33 18.68 -33 18 C-32.01 18 -31.02 18 -30 18 C-30 17.01 -30 16.02 -30 15 C-29.09 14.67 -28.19 14.34 -27.25 14 C-21.67 11.63 -12.76 7.52 -10 2 C-6.5 0.25 -3.86 -0.09 0 0 Z " fill="#FFFEFE" transform="translate(281,176)"/>
<path d="M0 0 C0.66 0.33 1.32 0.66 2 1 C1.67 2.65 1.34 4.3 1 6 C0.34 6 -0.32 6 -1 6 C-1.04 4.33 -1.04 2.67 -1 1 C-0.67 0.67 -0.34 0.34 0 0 Z " fill="#FFFFFF" transform="translate(540,390)"/>
<path d="M0 0 C1.32 0.33 2.64 0.66 4 1 C3.67 1.99 3.34 2.98 3 4 C2.01 4 1.02 4 0 4 C0 2.68 0 1.36 0 0 Z " fill="#FFFFFF" transform="translate(400,280)"/>
<path d="M0 0 C0.99 0 1.98 0 3 0 C3 1.32 3 2.64 3 4 C2.01 4 1.02 4 0 4 C0 2.68 0 1.36 0 0 Z " fill="#FFFFFF" transform="translate(268,268)"/>
<path d="M0 0 C0.66 0 1.32 0 2 0 C2 1.65 2 3.3 2 5 C1.01 4.34 0.02 3.68 -1 3 C-0.67 2.01 -0.34 1.02 0 0 Z " fill="#FFFFFF" transform="translate(104,309)"/>
<path d="M0 0 C-0.33 0.99 -0.66 1.98 -1 3 C-2.32 3 -3.64 3 -5 3 C-5 2.34 -5 1.68 -5 1 C-2 0 -2 0 0 0 Z " fill="#FFFFFF" transform="translate(341,245)"/>
<path d="M0 0 C0.99 0.33 1.98 0.66 3 1 C2.67 1.99 2.34 2.98 2 4 C1.34 4 0.68 4 0 4 C0 2.68 0 1.36 0 0 Z " fill="#FFFFFF" transform="translate(317,365)"/>
<path d="M0 0 C1.32 0.33 2.64 0.66 4 1 C4 1.66 4 2.32 4 3 C2.68 2.67 1.36 2.34 0 2 C0 1.34 0 0.68 0 0 Z " fill="#FFFFFF" transform="translate(119,482)"/>
<path d="M0 0 C0.99 0 1.98 0 3 0 C3 0.99 3 1.98 3 3 C2.01 3 1.02 3 0 3 C0 2.01 0 1.02 0 0 Z " fill="#FFFFFF" transform="translate(431,118)"/>
<path d="M0 0 C0.99 0 1.98 0 3 0 C3 0.99 3 1.98 3 3 C2.01 3 1.02 3 0 3 C0 2.01 0 1.02 0 0 Z " fill="#FFFFFF" transform="translate(419,103)"/>
<path d="M0 0 C0.66 0 1.32 0 2 0 C2 0.99 2 1.98 2 3 C1.01 3 0.02 3 -1 3 C-0.67 2.01 -0.34 1.02 0 0 Z " fill="#FFFFFF" transform="translate(153,255)"/>
<path d="M0 0 C0.66 0 1.32 0 2 0 C2 0.99 2 1.98 2 3 C1.34 3 0.68 3 0 3 C0 2.01 0 1.02 0 0 Z " fill="#FFFFFF" transform="translate(79,460)"/>
<path d="M0 0 C0.66 0 1.32 0 2 0 C2 0.99 2 1.98 2 3 C1.34 3 0.68 3 0 3 C0 2.01 0 1.02 0 0 Z " fill="#FFFFFF" transform="translate(509,421)"/>
<path d="M0 0 C0.99 0 1.98 0 3 0 C3 0.66 3 1.32 3 2 C2.01 2 1.02 2 0 2 C0 1.34 0 0.68 0 0 Z " fill="#FFFFFF" transform="translate(197,410)"/>
<path d="M0 0 C0.99 0 1.98 0 3 0 C3 0.66 3 1.32 3 2 C2.01 2 1.02 2 0 2 C0 1.34 0 0.68 0 0 Z " fill="#FFFFFF" transform="translate(346,386)"/>
<path d="M0 0 C0.99 0 1.98 0 3 0 C3 0.66 3 1.32 3 2 C2.01 2 1.02 2 0 2 C0 1.34 0 0.68 0 0 Z " fill="#FFFFFF" transform="translate(116,373)"/>
<path d="M0 0 C0.66 0 1.32 0 2 0 C2 0.99 2 1.98 2 3 C1.34 3 0.68 3 0 3 C0 2.01 0 1.02 0 0 Z " fill="#FFFFFF" transform="translate(248,359)"/>
<path d="M0 0 C0.99 0 1.98 0 3 0 C3 0.66 3 1.32 3 2 C2.01 2 1.02 2 0 2 C0 1.34 0 0.68 0 0 Z " fill="#FFFFFF" transform="translate(472,344)"/>
<path d="M0 0 C0.99 0 1.98 0 3 0 C3 0.66 3 1.32 3 2 C2.01 2 1.02 2 0 2 C0 1.34 0 0.68 0 0 Z " fill="#FFFFFF" transform="translate(181,207)"/>
<path d="M0 0 C0.99 0.33 1.98 0.66 3 1 C2.01 1.33 1.02 1.66 0 2 C0 1.34 0 0.68 0 0 Z " fill="#FFFFFF" transform="translate(390,452)"/>
<path d="M0 0 C0.33 0.99 0.66 1.98 1 3 C0.34 3 -0.32 3 -1 3 C-0.67 2.01 -0.34 1.02 0 0 Z " fill="#FFFFFF" transform="translate(158,252)"/>
<path d="M0 0 C0.99 0.33 1.98 0.66 3 1 C2.01 1.33 1.02 1.66 0 2 C0 1.34 0 0.68 0 0 Z " fill="#FFFFFF" transform="translate(73,223)"/>
<path d="M0 0 C0.66 0 1.32 0 2 0 C2 0.66 2 1.32 2 2 C1.34 2 0.68 2 0 2 C0 1.34 0 0.68 0 0 Z " fill="#FFFFFF" transform="translate(48,416)"/>
<path d="M0 0 C0.66 0 1.32 0 2 0 C2 0.66 2 1.32 2 2 C1.34 2 0.68 2 0 2 C0 1.34 0 0.68 0 0 Z " fill="#FFFFFF" transform="translate(488,411)"/>
<path d="M0 0 C0.66 0 1.32 0 2 0 C2 0.66 2 1.32 2 2 C1.34 2 0.68 2 0 2 C0 1.34 0 0.68 0 0 Z " fill="#FFFFFF" transform="translate(449,397)"/>
<path d="M0 0 C0.66 0 1.32 0 2 0 C2 0.66 2 1.32 2 2 C1.34 2 0.68 2 0 2 C0 1.34 0 0.68 0 0 Z " fill="#FFFFFF" transform="translate(453,396)"/>
<path d="M0 0 C0.66 0 1.32 0 2 0 C2 0.66 2 1.32 2 2 C1.34 2 0.68 2 0 2 C0 1.34 0 0.68 0 0 Z " fill="#FFFFFF" transform="translate(342,385)"/>
<path d="M0 0 C0.66 0 1.32 0 2 0 C2 0.66 2 1.32 2 2 C1.34 2 0.68 2 0 2 C0 1.34 0 0.68 0 0 Z " fill="#FFFFFF" transform="translate(436,381)"/>
<path d="M0 0 C0.66 0 1.32 0 2 0 C2 0.66 2 1.32 2 2 C1.34 2 0.68 2 0 2 C0 1.34 0 0.68 0 0 Z " fill="#FFFFFF" transform="translate(435,376)"/>
<path d="M0 0 C0.66 0 1.32 0 2 0 C2 0.66 2 1.32 2 2 C1.34 2 0.68 2 0 2 C0 1.34 0 0.68 0 0 Z " fill="#FFFFFF" transform="translate(449,371)"/>
<path d="M0 0 C0.66 0 1.32 0 2 0 C2 0.66 2 1.32 2 2 C1.34 2 0.68 2 0 2 C0 1.34 0 0.68 0 0 Z " fill="#FFFFFF" transform="translate(480,363)"/>
<path d="M0 0 C0.66 0 1.32 0 2 0 C2 0.66 2 1.32 2 2 C1.34 2 0.68 2 0 2 C0 1.34 0 0.68 0 0 Z " fill="#FFFFFF" transform="translate(107,304)"/>
<path d="M0 0 C0.66 0 1.32 0 2 0 C2 0.66 2 1.32 2 2 C1.34 2 0.68 2 0 2 C0 1.34 0 0.68 0 0 Z " fill="#FFFFFF" transform="translate(176,275)"/>
<path d="M0 0 C0.66 0 1.32 0 2 0 C2 0.66 2 1.32 2 2 C1.34 2 0.68 2 0 2 C0 1.34 0 0.68 0 0 Z " fill="#FFFFFF" transform="translate(427,119)"/>
</svg>
